<?xml version="1.0" standalone="no"?>
  <!DOCTYPE svg PUBLIC "-//W3C//DTD SVG 1.1//EN" "http://www.w3.org/Graphics/SVG/1.1/DTD/svg11.dtd" >
  <svg>
  <metadata>
  Created by font-carrier
  </metadata>
  <defs>
  <font id="DaysSansBlack" horiz-adv-x="1330" vert-adv-y="1330" >
    <font-face
      
      font-family="Days Sans Black"
      
      font-weight="400"
      
      font-stretch="normal"
      
      units-per-em="1000"
      
      ascent="950"
      
      descent="-200"
      
    />
      <missing-glyph />

      

      
      <glyph glyph-name="uni21" unicode="&#x21;" d="M281 665L261 260Q260 245 250.50 235Q241 225 226 225L106 225Q91 225 81.50 235Q72 245 71 260L51 665Q50 680 60.50 690Q71 700 86 700L246 700Q261 700 271.50 690Q282 680 281 665M66 50L66 120Q66 139 81.50 154.50Q97 170 116 170L216 170Q235 170 250.50 154.50Q266 139 266 120L266 50Q266 31 250.50 15.50Q235 0 216 0L116 0Q97 0 81.50 15.50Q66 31 66 50Z"  horiz-adv-x="332" vert-adv-y="1000"  />

      
      <glyph glyph-name="uni22" unicode="&#x22;" d="M166 445L81 445Q54 445 51 475L31 670Q28 700 61 700L186 700Q219 700 216 670L196 475Q193 445 166 445M395 445L310 445Q283 445 280 475L260 670Q257 700 290 700L415 700Q448 700 445 670L425 475Q422 445 395 445Z"  horiz-adv-x="476" vert-adv-y="1000"  />

      
      <glyph glyph-name="uni23" unicode="&#x23;" d="M830 525L830 445Q830 430 820 420Q810 410 795 410L690 410L660 290L745 290Q760 290 770 280Q780 270 780 255L780 175Q780 160 770 150Q760 140 745 140L619 140L590 35Q586 20 570 10Q554 0 535 0L415 0Q403 0 394.50 10.50Q386 21 390 35L420 140L320 140L290 35Q280 0 245 0L115 0Q103 0 94.50 10.50Q86 21 90 35L120 140L55 140Q40 140 30 150Q20 160 20 175L20 255Q20 270 30 280Q40 290 55 290L160 290L190 410L105 410Q90 410 80 420Q70 430 70 445L70 525Q70 540 80 550Q90 560 105 560L230 560L260 665Q270 700 305 700L435 700Q447 700 455.50 689.50Q464 679 460 665L430 560L530 560L560 665Q570 700 605 700L735 700Q747 700 755.50 689.50Q764 679 760 665L730 560L795 560Q810 560 820 550Q830 540 830 525M390 410L360 290L460 290L490 410L390 410Z"  horiz-adv-x="850" vert-adv-y="1000"  />

      
      <glyph glyph-name="uni24" unicode="&#x24;" d="M345 790L455 790Q466 790 475.50 780.50Q485 771 485 760L485 715Q607 697 673.50 639.50Q740 582 740 510Q740 470 700 470L575 470Q537 470 515 510Q488 555 400 555Q338 555 309 537.50Q280 520 280 495Q280 468 330 454.50Q380 441 451 431Q522 421 593.50 403Q665 385 715 336.50Q765 288 765 210Q765 123 693.50 61Q622-1 485-15L485-60Q485-71 475.50-80.50Q466-90 455-90L345-90Q334-90 324.50-80.50Q315-71 315-60L315-15Q170-1 100 58.50Q30 118 30 200Q30 240 70 240L195 240Q232 240 255 200Q288 145 400 145Q469 145 502 164.50Q535 184 535 210Q535 237 485 250.50Q435 264 364 274Q293 284 221.50 302Q150 320 100 368.50Q50 417 50 495Q50 579 116.50 640Q183 701 315 715L315 760Q315 771 324.50 780.50Q334 790 345 790Z"  horiz-adv-x="795" vert-adv-y="1000"  />

      
      <glyph glyph-name="uni25" unicode="&#x25;" d="M819 665L340 35Q314 0 280 0L135 0Q117 0 109.50 12Q102 24 111 35L590 665Q618 700 650 700L795 700Q813 700 820.50 688Q828 676 819 665M743 111Q743 111 749 119Q755 127 755 155Q755 183 743 199Q731 215 715 215Q699 215 687 199Q675 183 675 155Q675 127 687 111Q699 95 715 95Q731 95 743 111M857 280.50Q857 280.50 883.50 255.75Q910 231 910 155Q910 79 857 29.50Q804-20 715-20Q626-20 573 29.50Q520 79 520 155Q520 231 573 280.50Q626 330 715 330Q804 330 857 280.50M243 501Q243 501 249 509Q255 517 255 545Q255 573 243 589Q231 605 215 605Q199 605 187 589Q175 573 175 545Q175 517 187 501Q199 485 215 485Q231 485 243 501M357 670.50Q357 670.50 383.50 645.75Q410 621 410 545Q410 469 357 419.50Q304 370 215 370Q126 370 73 419.50Q20 469 20 545Q20 621 73 670.50Q126 720 215 720Q304 720 357 670.50Z"  horiz-adv-x="930" vert-adv-y="1000"  />

      
      <glyph glyph-name="uni26" unicode="&#x26;" d="M650 370L725 300Q749 278 725 250L665 190L825 35Q836 24 827.50 12Q819 0 800 0L610 0Q593 0 580 5.50Q567 11 560 16.50Q553 22 540 35L515 60L505 60Q502 57 496 51.50Q490 46 469.50 32Q449 18 426 7.50Q403-3 366-11.50Q329-20 290-20Q163-20 91.50 40Q20 100 20 190Q20 232 36.50 267Q53 302 76.50 322Q100 342 123.50 356Q147 370 164 375L180 380L180 390Q173 394 162 403.50Q151 413 133 446.50Q115 480 115 520Q115 601 192.50 660.50Q270 720 405 720Q540 720 622.50 655.50Q705 591 705 510Q705 470 665 470L540 470Q510 470 480 510Q446 555 405 555Q376 555 360.50 542.50Q345 530 345 510Q345 501 349 492.50Q353 484 364.50 472Q376 460 387.50 450Q399 440 422.50 419Q446 398 465 380L540 310L600 370Q623 395 650 370M315 145Q335 145 353.50 153.50Q372 162 381 171L390 180L295 270Q290 267 282.50 261.50Q275 256 262.50 238Q250 220 250 200Q250 177 268 161Q286 145 315 145Z"  horiz-adv-x="831" vert-adv-y="1000"  />

      
      <glyph glyph-name="uni27" unicode="&#x27;" d="M166 445L81 445Q54 445 51 475L31 670Q28 700 61 700L186 700Q219 700 216 670L196 475Q193 445 166 445Z"  horiz-adv-x="247" vert-adv-y="1000"  />

      
      <glyph glyph-name="uni28" unicode="&#x28;" d="M281 452Q281 452 273 419.50Q265 387 265 310Q265 233 281 168Q297 103 325 57Q353 11 373-12.50Q393-36 419-61Q437-78 420-95L330-190Q316-204 295-190Q258-166 219.50-126.50Q181-87 139-26Q97 35 71 123Q45 211 45 310Q45 409 71 497Q97 585 139 646Q181 707 219.50 746.50Q258 786 295 810Q316 824 330 810L420 715Q437 698 419 681Q393 656 373 632.50Q353 609 325 563Q297 517 281 452Z"  horiz-adv-x="438" vert-adv-y="1000"  />

      
      <glyph glyph-name="uni29" unicode="&#x29;" d="M157 168Q157 168 165 200.50Q173 233 173 310Q173 387 157 452Q141 517 113 563Q85 609 65 632.50Q45 656 19 681Q1 698 18 715L108 810Q122 824 143 810Q180 786 218.50 746.50Q257 707 299 646Q341 585 367 497Q393 409 393 310Q393 211 367 123Q341 35 299-26Q257-87 218.50-126.50Q180-166 143-190Q122-204 108-190L18-95Q1-78 19-61Q45-36 65-12.50Q85 11 113 57Q141 103 157 168Z"  horiz-adv-x="438" vert-adv-y="1000"  />

      
      <glyph glyph-name="uni2a" unicode="&#x2a;" d="M221 700L276 700Q291 700 301 690Q311 680 311 665L311 595L381 635Q392 641 405.50 638.50Q419 636 426 625L456 575Q463 563 460 550Q457 537 446 530L376 490L446 450Q457 443 460 429.50Q463 416 456 405L426 355Q419 344 405.50 341Q392 338 381 345L311 385L311 315Q311 300 301 290Q291 280 276 280L221 280Q206 280 196 290Q186 300 186 315L186 385L116 345Q105 338 91.50 341Q78 344 71 355L41 405Q34 416 37 429.50Q40 443 51 450L121 490L51 530Q40 537 37 550Q34 563 41 575L71 625Q78 636 91.50 638.50Q105 641 116 635L186 595L186 665Q186 680 196 690Q206 700 221 700Z"  horiz-adv-x="497" vert-adv-y="1000"  />

      
      <glyph glyph-name="uni2b" unicode="&#x2b;" d="M260 595L350 595Q365 595 375 585Q385 575 385 560L385 410L535 410Q550 410 560 400Q570 390 570 375L570 285Q570 270 560 260Q550 250 535 250L385 250L385 100Q385 85 375 75Q365 65 350 65L260 65Q245 65 235 75Q225 85 225 100L225 250L75 250Q60 250 50 260Q40 270 40 285L40 375Q40 390 50 400Q60 410 75 410L225 410L225 560Q225 575 235 585Q245 595 260 595Z"  horiz-adv-x="610" vert-adv-y="1000"  />

      
      <glyph glyph-name="uni2c" unicode="&#x2c;" d="M40 50L40 110Q40 129 55.50 144.50Q71 160 90 160L190 160Q209 160 224.50 144.50Q240 129 240 110L240 50Q240 15 225-10L180-80Q161-110 135-110L95-110Q77-110 70.50-100Q64-90 71-80L115 0L90 0Q71 0 55.50 15.50Q40 31 40 50Z"  horiz-adv-x="280" vert-adv-y="1000"  />

      
      <glyph glyph-name="uni2d" unicode="&#x2d;" d="M540 375L540 285Q540 270 530 260Q520 250 505 250L75 250Q60 250 50 260Q40 270 40 285L40 375Q40 390 50 400Q60 410 75 410L505 410Q520 410 530 400Q540 390 540 375Z"  horiz-adv-x="580" vert-adv-y="1000"  />

      
      <glyph glyph-name="uni2e" unicode="&#x2e;" d="M40 50L40 120Q40 139 55.50 154.50Q71 170 90 170L190 170Q209 170 224.50 154.50Q240 139 240 120L240 50Q240 31 224.50 15.50Q209 0 190 0L90 0Q71 0 55.50 15.50Q40 31 40 50Z"  horiz-adv-x="280" vert-adv-y="1000"  />

      
      <glyph glyph-name="uni2f" unicode="&#x2f;" d="M244 35Q223 0 184 0L39 0Q21 0 13.50 12Q6 24 14 35L374 665Q395 700 434 700L579 700Q597 700 604.50 688Q612 676 604 665L244 35Z"  horiz-adv-x="618" vert-adv-y="1000"  />

      
      <glyph glyph-name="uni30" unicode="&#x30;" d="M677 621Q677 621 726 571.50Q775 522 775 350Q775 178 677 79Q579-20 410-20Q241-20 143 79Q45 178 45 350Q45 522 143 621Q241 720 410 720Q579 720 677 621M312.50 504Q312.50 504 293.75 478.50Q275 453 275 350Q275 247 312.50 196Q350 145 410 145Q470 145 507.50 196Q545 247 545 350Q545 453 507.50 504Q470 555 410 555Q350 555 312.50 504Z"  horiz-adv-x="820" vert-adv-y="1000"  />

      
      <glyph glyph-name="uni31" unicode="&#x31;" d="M256 700L371 700Q386 700 396 690Q406 680 406 665L406 35Q406 20 396 10Q386 0 371 0L221 0Q206 0 196 10Q186 20 186 35L186 460L176 460L126 430Q114 423 98.50 426Q83 429 76 440L26 520Q19 531 22 544Q25 557 36 565L171 665Q173 666 179.50 671.50Q186 677 189 679Q192 681 198.50 685Q205 689 210 691Q215 693 222.50 695.50Q230 698 238.50 699Q247 700 256 700Z"  horiz-adv-x="481" vert-adv-y="1000"  />

      
      <glyph glyph-name="uni32" unicode="&#x32;" d="M695 480Q695 418 664.50 371Q634 324 583.50 296Q533 268 483 249Q433 230 378.50 212Q324 194 300 180L300 170L654 170Q669 170 679 160Q689 150 689 135L689 35Q689 20 679 10Q669 0 654 0L70 0Q55 0 45 10Q35 20 35 35L35 120Q35 176 67 221.50Q99 267 146.50 293.50Q194 320 250 345Q306 370 353.50 387Q401 404 433 428Q465 452 465 480Q465 511 439 533Q413 555 370 555Q298 555 265 500Q240 460 205 460L80 460Q40 460 40 500Q40 589 127 654.50Q214 720 370 720Q521 720 608 649.50Q695 579 695 480Z"  horiz-adv-x="735" vert-adv-y="1000"  />

      
      <glyph glyph-name="uni33" unicode="&#x33;" d="M700 515Q700 484 686.50 458Q673 432 654 417.50Q635 403 616 392.50Q597 382 584 378L570 374L570 364Q576 363 586 360Q596 357 622 344.50Q648 332 668 315Q688 298 704 266Q720 234 720 195Q720 108 629.50 44Q539-20 370-20Q212-20 121 46Q30 112 30 195Q30 235 70 235L195 235Q233 235 255 195Q282 145 370 145Q429 145 459.50 164.50Q490 184 490 210Q490 237 468 256Q446 275 410 275L310 275Q295 275 285 285Q275 295 275 310L275 410Q275 425 285 435Q295 445 310 445L400 445Q433 445 451.50 461Q470 477 470 500Q470 521 445 538Q420 555 375 555Q302 555 275 505Q253 465 215 465L90 465Q50 465 50 505Q50 587 138.50 653.50Q227 720 375 720Q530 720 615 658.50Q700 597 700 515Z"  horiz-adv-x="765" vert-adv-y="1000"  />

      
      <glyph glyph-name="uni34" unicode="&#x34;" d="M65 320L395 665Q430 700 475 700L640 700Q655 700 665 690Q675 680 675 665L675 290L730 290Q745 290 755 280Q765 270 765 255L765 155Q765 140 755 130Q745 120 730 120L675 120L675 35Q675 20 665 10Q655 0 640 0L490 0Q475 0 465 10Q455 20 455 35L455 120L65 120Q50 120 40 130Q30 140 30 155L30 240Q30 285 65 320M285 300L285 290L455 290L455 470L445 470L285 300Z"  horiz-adv-x="790" vert-adv-y="1000"  />

      
      <glyph glyph-name="uni35" unicode="&#x35;" d="M680 665L680 565Q680 550 670 540Q660 530 645 530L300 530L295 455L305 455Q360 470 425 470Q563 470 644 401Q725 332 725 230Q725 119 636 49.50Q547-20 375-20Q221-20 130.50 45.50Q40 111 40 190Q40 230 80 230L205 230Q235 230 265 190Q299 145 375 145Q495 145 495 230Q495 315 375 315Q331 315 282 300Q233 285 200 285L105 285Q90 285 79.50 295Q69 305 70 320L90 665Q91 680 100.50 690Q110 700 125 700L645 700Q660 700 670 690Q680 680 680 665Z"  horiz-adv-x="755" vert-adv-y="1000"  />

      
      <glyph glyph-name="uni36" unicode="&#x36;" d="M390-20Q231-20 138 78Q45 176 45 350Q45 522 142 621Q239 720 405 720Q548 720 629 664Q710 608 710 540Q710 500 670 500L545 500Q524 500 508 508.50Q492 517 483 527.50Q474 538 454 546.50Q434 555 405 555Q350 555 312.50 520.50Q275 486 275 440L285 440Q340 465 430 465Q567 465 648.50 397.50Q730 330 730 235Q730 121 643 50.50Q556-20 390-20M390 145Q444 145 472.50 167.50Q501 190 501 225Q501 260 472.50 282.50Q444 305 390 305Q363 305 334.50 298.50Q306 292 290 286L275 280Q275 222 309.50 183.50Q344 145 390 145Z"  horiz-adv-x="765" vert-adv-y="1000"  />

      
      <glyph glyph-name="uni37" unicode="&#x37;" d="M155 35L415 520L415 530L55 530Q40 530 30 540Q20 550 20 565L20 665Q20 680 30 690Q40 700 55 700L635 700Q650 700 660 690Q670 680 670 665L670 580Q670 564 667 550.50Q664 537 661.50 531Q659 525 653 514Q647 503 645 500L400 35Q382 0 350 0L180 0Q164 0 155.50 10.50Q147 21 155 35Z"  horiz-adv-x="690" vert-adv-y="1000"  />

      
      <glyph glyph-name="uni38" unicode="&#x38;" d="M483.50 255.50Q483.50 255.50 467.75 265.25Q452 275 390 275Q328 275 296.50 255.50Q265 236 265 210Q265 184 296.50 164.50Q328 145 390 145Q452 145 483.50 164.50Q515 184 515 210Q515 236 483.50 255.50M460 538Q460 538 447.50 546.50Q435 555 390 555Q345 555 320 538Q295 521 295 500Q295 479 320 462Q345 445 390 445Q435 445 460 462Q485 479 485 500Q485 521 460 538M150 658.50Q150 658.50 192.50 689.25Q235 720 390 720Q545 720 630 658.50Q715 597 715 515Q715 484 703 458Q691 432 674.50 417.50Q658 403 641 392.50Q624 382 612 378L600 374L600 364Q606 363 615.50 360Q625 357 650 344.50Q675 332 694.50 315Q714 298 729.50 266Q745 234 745 195Q745 108 653.50 44Q562-20 390-20Q218-20 126.50 44Q35 108 35 195Q35 234 50 266Q65 298 86 315.50Q107 333 128.50 344.50Q150 356 165 360L180 364L180 374Q175 375 167.50 378Q160 381 140 392Q120 403 105 417.50Q90 432 77.50 458Q65 484 65 515Q65 597 150 658.50Z"  horiz-adv-x="780" vert-adv-y="1000"  />

      
      <glyph glyph-name="uni39" unicode="&#x39;" d="M375 720Q534 720 627 622Q720 524 720 350Q720 178 623 79Q526-20 360-20Q217-20 136 36Q55 92 55 160Q55 200 95 200L220 200Q241 200 257 191.50Q273 183 282 172.50Q291 162 311 153.50Q331 145 360 145Q415 145 452.50 179.50Q490 214 490 260L480 260Q425 235 335 235Q198 235 116.50 302.50Q35 370 35 465Q35 579 122 649.50Q209 720 375 720M375 555Q321 555 292.50 532.50Q264 510 264 475Q264 440 292.50 417.50Q321 395 375 395Q402 395 430.50 401.50Q459 408 474 414L490 420Q490 478 455.50 516.50Q421 555 375 555Z"  horiz-adv-x="765" vert-adv-y="1000"  />

      
      <glyph glyph-name="uni3a" unicode="&#x3a;" d="M50 50L50 120Q50 139 65.50 154.50Q81 170 100 170L200 170Q219 170 234.50 154.50Q250 139 250 120L250 50Q250 31 234.50 15.50Q219 0 200 0L100 0Q81 0 65.50 15.50Q50 31 50 50M50 400L50 470Q50 489 65.50 504.50Q81 520 100 520L200 520Q219 520 234.50 504.50Q250 489 250 470L250 400Q250 381 234.50 365.50Q219 350 200 350L100 350Q81 350 65.50 365.50Q50 381 50 400Z"  horiz-adv-x="300" vert-adv-y="1000"  />

      
      <glyph glyph-name="uni3b" unicode="&#x3b;" d="M50 400L50 470Q50 489 65.50 504.50Q81 520 100 520L200 520Q219 520 234.50 504.50Q250 489 250 470L250 400Q250 381 234.50 365.50Q219 350 200 350L100 350Q81 350 65.50 365.50Q50 381 50 400M50 50L50 110Q50 129 65.50 144.50Q81 160 100 160L200 160Q219 160 234.50 144.50Q250 129 250 110L250 50Q250 15 235-10L190-80Q170-110 145-110L105-110Q87-110 80.50-100Q74-90 81-80L125 0L100 0Q81 0 65.50 15.50Q50 31 50 50Z"  horiz-adv-x="300" vert-adv-y="1000"  />

      
      <glyph glyph-name="uni3c" unicode="&#x3c;" d="M40 210L40 310Q40 338 70 350L500 520Q516 526 528 519.50Q540 513 540 495L540 395Q540 364 500 350L260 265L260 255L500 170Q540 156 540 125L540 25Q540 7 528 0.50Q516-6 500 0L70 170Q40 182 40 210Z"  horiz-adv-x="590" vert-adv-y="1000"  />

      
      <glyph glyph-name="uni3d" unicode="&#x3d;" d="M540 235L540 155Q540 140 530 130Q520 120 505 120L85 120Q70 120 60 130Q50 140 50 155L50 235Q50 250 60 260Q70 270 85 270L505 270Q520 270 530 260Q540 250 540 235M540 485L540 405Q540 390 530 380Q520 370 505 370L85 370Q70 370 60 380Q50 390 50 405L50 485Q50 500 60 510Q70 520 85 520L505 520Q520 520 530 510Q540 500 540 485Z"  horiz-adv-x="590" vert-adv-y="1000"  />

      
      <glyph glyph-name="uni3e" unicode="&#x3e;" d="M550 310L550 210Q550 182 520 170L90 0Q74-6 62 0.50Q50 7 50 25L50 125Q50 156 90 170L330 255L330 265L90 350Q50 364 50 395L50 495Q50 513 62 519.50Q74 526 90 520L520 350Q550 338 550 310Z"  horiz-adv-x="590" vert-adv-y="1000"  />

      
      <glyph glyph-name="uni3f" unicode="&#x3f;" d="M695 495Q695 451 679.50 417.50Q664 384 640.50 365Q617 346 588.50 330.50Q560 315 534.50 306.50Q509 298 488 285.50Q467 273 460 260Q442 225 420 225L275 225Q260 225 250 235Q240 245 240 260Q240 302 263 332.50Q286 363 319 381Q352 399 385.50 414Q419 429 442 449Q465 469 465 495Q465 520 438 537.50Q411 555 355 555Q278 555 245 500Q220 460 185 460L60 460Q20 460 20 500Q20 590 108 655Q196 720 355 720Q514 720 604.50 652.50Q695 585 695 495M240 50L240 120Q240 139 255.50 154.50Q271 170 290 170L390 170Q409 170 424.50 154.50Q440 139 440 120L440 50Q440 31 424.50 15.50Q409 0 390 0L290 0Q271 0 255.50 15.50Q240 31 240 50Z"  horiz-adv-x="725" vert-adv-y="1000"  />

      
      <glyph glyph-name="uni40" unicode="&#x40;" d="M550 65Q599 65 651.50 77.50Q704 90 730 90L750 90Q761 90 770.50 80.50Q780 71 780 60L780-15Q780-43 749-50Q632-80 520-80Q313-80 181.50 43.50Q50 167 50 350Q50 533 181.50 656.50Q313 780 520 780Q724 780 857 661.50Q990 543 990 380Q990 276 923 213Q856 150 750 150Q701 150 663.50 160Q626 170 613 180L600 190L595 190Q591 186 583 179Q575 172 546.50 161Q518 150 485 150Q405 150 352.50 205.50Q300 261 300 350Q300 439 352.50 494.50Q405 550 485 550Q512 550 534.50 540Q557 530 566 520L575 510L580 510L580 520Q580 528 586 534Q592 540 600 540L705 540Q712 540 718.50 534Q725 528 725 520L725 276Q740 266 760 266Q786 266 803 293Q820 320 820 380Q820 488 736 564Q652 640 520 640Q386 640 303 559Q220 478 220 350Q220 223 308 144Q396 65 550 65M525 265Q538 265 552 271.50Q566 278 573 284L580 290L580 410Q555 435 525 435Q491 435 470.50 413Q450 391 450 350Q450 309 470.50 287Q491 265 525 265Z"  horiz-adv-x="1030" vert-adv-y="1000"  />

      
      <glyph glyph-name="uni41" unicode="&#x41;" d="M618 35L583 125L268 125L233 35Q219 0 188 0L28 0Q12 0 4 10Q-4 20 3 35L283 665Q299 700 328 700L533 700Q563 700 578 666L858 35Q865 20 857 10Q849 0 833 0L663 0Q632 0 618 35M423 490L338 290L513 290L433 490L423 490Z"  horiz-adv-x="861" vert-adv-y="1000"  />

      
      <glyph glyph-name="uni42" unicode="&#x42;" d="M765 505Q765 461 740 428.50Q715 396 690 386L665 375L665 365Q671 364 681 361Q691 358 717 346Q743 334 763 317.50Q783 301 799 271Q815 241 815 205Q815 117 737.50 58.50Q660 0 510 0L110 0Q95 0 85 10Q75 20 75 35L75 665Q75 680 85 690Q95 700 110 700L470 700Q616 700 690.50 645Q765 590 765 505M510 280L295 280L295 160L510 160Q546 160 565.50 176.50Q585 193 585 220Q585 247 565.50 263.50Q546 280 510 280M470 540L295 540L295 440L470 440Q535 440 535 490Q535 540 470 540Z"  horiz-adv-x="850" vert-adv-y="1000"  />

      
      <glyph glyph-name="uni43" unicode="&#x43;" d="M455 720Q621 720 718 647Q815 574 815 480Q815 440 775 440L650 440Q614 440 590 480Q543 555 455 555Q371 555 323 502.50Q275 450 275 350Q275 250 323 197.50Q371 145 455 145Q553 145 600 230Q622 270 660 270L785 270Q825 270 825 230Q825 132 725 56Q625-20 455-20Q259-20 152 79.50Q45 179 45 350Q45 521 152 620.50Q259 720 455 720Z"  horiz-adv-x="860" vert-adv-y="1000"  />

      
      <glyph glyph-name="uni44" unicode="&#x44;" d="M110 0Q95 0 85 10Q75 20 75 35L75 665Q75 680 85 690Q95 700 110 700L425 700Q623 700 729 605.50Q835 511 835 350Q835 189 729 94.50Q623 0 425 0L110 0M295 160L425 160Q512 160 558.50 208.50Q605 257 605 350Q605 443 558.50 491.50Q512 540 425 540L295 540L295 160Z"  horiz-adv-x="880" vert-adv-y="1000"  />

      
      <glyph glyph-name="uni45" unicode="&#x45;" d="M755 665L755 565Q755 550 745 540Q735 530 720 530L295 530L295 440L610 440Q625 440 635 430Q645 420 645 405L645 305Q645 290 635 280Q625 270 610 270L295 270L295 170L720 170Q735 170 745 160Q755 150 755 135L755 35Q755 20 745 10Q735 0 720 0L110 0Q95 0 85 10Q75 20 75 35L75 665Q75 680 85 690Q95 700 110 700L720 700Q735 700 745 690Q755 680 755 665Z"  horiz-adv-x="790" vert-adv-y="1000"  />

      
      <glyph glyph-name="uni46" unicode="&#x46;" d="M735 665L735 565Q735 550 725 540Q715 530 700 530L295 530L295 400L610 400Q625 400 635 390Q645 380 645 365L645 265Q645 250 635 240Q625 230 610 230L295 230L295 35Q295 20 285 10Q275 0 260 0L110 0Q95 0 85 10Q75 20 75 35L75 665Q75 680 85 690Q95 700 110 700L700 700Q715 700 725 690Q735 680 735 665Z"  horiz-adv-x="760" vert-adv-y="1000"  />

      
      <glyph glyph-name="uni47" unicode="&#x47;" d="M830 365L830 280Q830 155 727.50 67.50Q625-20 455-20Q259-20 152 79.50Q45 179 45 350Q45 521 152 620.50Q259 720 455 720Q620 720 717.50 648.50Q815 577 815 490Q815 471 804 460.50Q793 450 775 450L650 450Q620 450 590 490Q568 521 538.50 538Q509 555 455 555Q371 555 323 502.50Q275 450 275 350Q275 250 323 197.50Q371 145 455 145Q572 145 610 240L498 240Q483 240 473 250Q463 260 463 275L463 365Q463 380 473 390Q483 400 498 400L795 400Q810 400 820 390Q830 380 830 365Z"  horiz-adv-x="875" vert-adv-y="1000"  />

      
      <glyph glyph-name="uni48" unicode="&#x48;" d="M805 665L805 35Q805 20 795 10Q785 0 770 0L620 0Q605 0 595 10Q585 20 585 35L585 260L295 260L295 35Q295 20 285 10Q275 0 260 0L110 0Q95 0 85 10Q75 20 75 35L75 665Q75 680 85 690Q95 700 110 700L260 700Q275 700 285 690Q295 680 295 665L295 430L585 430L585 665Q585 680 595 690Q605 700 620 700L770 700Q785 700 795 690Q805 680 805 665Z"  horiz-adv-x="880" vert-adv-y="1000"  />

      
      <glyph glyph-name="uni49" unicode="&#x49;" d="M515 665L515 565Q515 550 505 540Q495 530 480 530L385 530L385 170L480 170Q495 170 505 160Q515 150 515 135L515 35Q515 20 505 10Q495 0 480 0L70 0Q55 0 45 10Q35 20 35 35L35 135Q35 150 45 160Q55 170 70 170L165 170L165 530L70 530Q55 530 45 540Q35 550 35 565L35 665Q35 680 45 690Q55 700 70 700L480 700Q495 700 505 690Q515 680 515 665Z"  horiz-adv-x="550" vert-adv-y="1000"  />

      
      <glyph glyph-name="uni4a" unicode="&#x4a;" d="M180 160L190 160Q242 160 271 189Q300 218 300 270L300 665Q300 680 310 690Q320 700 335 700L485 700Q500 700 510 690Q520 680 520 665L520 266Q520-10 190-10L55-10Q40-10 30 0Q20 10 20 25L20 135Q20 150 30 160Q40 170 55 170L110 170Q120 170 145 165Q170 160 180 160Z"  horiz-adv-x="590" vert-adv-y="1000"  />

      
      <glyph glyph-name="uni4b" unicode="&#x4b;" d="M585 370L585 360Q588 359 593 357Q598 355 613.50 345Q629 335 644.50 321Q660 307 681 280.50Q702 254 720 220L820 35Q826 23 819.50 11.50Q813 0 795 0L640 0Q594 0 575 35L475 220Q461 245 442 257.50Q423 270 385 270L295 270L295 35Q295 20 285 10Q275 0 260 0L110 0Q95 0 85 10Q75 20 75 35L75 665Q75 680 85 690Q95 700 110 700L260 700Q275 700 285 690Q295 680 295 665L295 440L370 440Q408 440 427 452.50Q446 465 460 490L555 665Q574 700 620 700L775 700Q793 700 799.50 688.50Q806 677 800 665L705 490Q681 446 651 416Q621 386 603 378L585 370Z"  horiz-adv-x="838" vert-adv-y="1000"  />

      
      <glyph glyph-name="uni4c" unicode="&#x4c;" d="M705 135L705 35Q705 20 695 10Q685 0 670 0L110 0Q95 0 85 10Q75 20 75 35L75 665Q75 680 85 690Q95 700 110 700L260 700Q275 700 285 690Q295 680 295 665L295 170L670 170Q685 170 695 160Q705 150 705 135Z"  horiz-adv-x="720" vert-adv-y="1000"  />

      
      <glyph glyph-name="uni4d" unicode="&#x4d;" d="M616 0L495 0Q474 0 459.50 11Q445 22 440 35L305 365L295 365L295 35Q295 20 285 10Q275 0 260 0L110 0Q95 0 85 10Q75 20 75 35L75 665Q75 680 85 690Q95 700 110 700L320 700Q341 700 355.50 689Q370 678 375 665L550 240L560 240L735 665Q740 678 754.50 689Q769 700 790 700L1000 700Q1015 700 1025 690Q1035 680 1035 665L1035 35Q1035 20 1025 10Q1015 0 1000 0L850 0Q835 0 825 10Q815 20 815 35L815 365L805 365L671 35Q666 22 651.50 11Q637 0 616 0Z"  horiz-adv-x="1110" vert-adv-y="1000"  />

      
      <glyph glyph-name="uni4e" unicode="&#x4e;" d="M585 300L595 300L595 665Q595 680 605 690Q615 700 630 700L780 700Q795 700 805 690Q815 680 815 665L815 35Q815 20 805 10Q795 0 780 0L610 0Q578 0 555 35L305 400L295 400L295 35Q295 20 285 10Q275 0 260 0L110 0Q95 0 85 10Q75 20 75 35L75 665Q75 680 85 690Q95 700 110 700L280 700Q312 700 335 665L585 300Z"  horiz-adv-x="890" vert-adv-y="1000"  />

      
      <glyph glyph-name="uni4f" unicode="&#x4f;" d="M323 197.50Q323 197.50 347 171.25Q371 145 455 145Q539 145 587 197.50Q635 250 635 350Q635 450 587 502.50Q539 555 455 555Q371 555 323 502.50Q275 450 275 350Q275 250 323 197.50M152 620.50Q152 620.50 205.50 670.25Q259 720 455 720Q651 720 758 620.50Q865 521 865 350Q865 179 758 79.50Q651-20 455-20Q259-20 152 79.50Q45 179 45 350Q45 521 152 620.50Z"  horiz-adv-x="910" vert-adv-y="1000"  />

      
      <glyph glyph-name="uni50" unicode="&#x50;" d="M717 629.50Q717 629.50 761 594.25Q805 559 805 445Q805 331 717 260.50Q629 190 460 190L295 190L295 35Q295 20 285 10Q275 0 260 0L110 0Q95 0 85 10Q75 20 75 35L75 665Q75 680 85 690Q95 700 110 700L460 700Q629 700 717 629.50M295 350L460 350Q515 350 545 376Q575 402 575 445Q575 488 545 514Q515 540 460 540L295 540L295 350Z"  horiz-adv-x="830" vert-adv-y="1000"  />

      
      <glyph glyph-name="uni51" unicode="&#x51;" d="M323 502.50Q323 502.50 299 476.25Q275 450 275 350Q275 250 323 197.50Q371 145 455 145Q539 145 587 197.50Q635 250 635 350Q635 450 587 502.50Q539 555 455 555Q371 555 323 502.50M865 349Q865 301 847.50 256Q830 211 812 190L795 170L795 160L880 160Q895 160 905 150Q915 140 915 125L915 25Q915 10 905 0Q895-10 880-10L455-10Q260-10 152.50 87.50Q45 185 45 350Q45 521 152 620.50Q259 720 455 720Q651 720 758 620.50Q865 521 865 349Z"  horiz-adv-x="935" vert-adv-y="1000"  />

      
      <glyph glyph-name="uni52" unicode="&#x52;" d="M665 310L665 300Q670 298 679 292Q688 286 713 258Q738 230 760 190L845 35Q851 23 844.50 11.50Q838 0 820 0L665 0Q619 0 600 35L515 190Q501 215 482 227.50Q463 240 425 240L295 240L295 35Q295 20 285 10Q275 0 260 0L110 0Q95 0 85 10Q75 20 75 35L75 665Q75 680 85 690Q95 700 110 700L475 700Q633 700 716.50 635Q800 570 800 470Q800 434 786 404Q772 374 752 357.50Q732 341 712.50 329.50Q693 318 679 314L665 310M295 400L475 400Q522 400 546 419Q570 438 570 470Q570 502 546 521Q522 540 475 540L295 540L295 400Z"  horiz-adv-x="863" vert-adv-y="1000"  />

      
      <glyph glyph-name="uni53" unicode="&#x53;" d="M280 495Q280 468 330 454.50Q380 441 451 431Q522 421 593.50 403Q665 385 715 336.50Q765 288 765 210Q765 112 672.50 46Q580-20 400-20Q218-20 124 44.50Q30 109 30 200Q30 240 70 240L195 240Q232 240 255 200Q288 145 400 145Q469 145 502 164.50Q535 184 535 210Q535 237 485 250.50Q435 264 364 274Q293 284 221.50 302Q150 320 100 368.50Q50 417 50 495Q50 592 138 656Q226 720 400 720Q561 720 650.50 656.50Q740 593 740 510Q740 470 700 470L575 470Q537 470 515 510Q488 555 400 555Q338 555 309 537.50Q280 520 280 495Z"  horiz-adv-x="795" vert-adv-y="1000"  />

      
      <glyph glyph-name="uni54" unicode="&#x54;" d="M725 665L725 565Q725 550 715 540Q705 530 690 530L480 530L480 35Q480 20 470 10Q460 0 445 0L295 0Q280 0 270 10Q260 20 260 35L260 530L50 530Q35 530 25 540Q15 550 15 565L15 665Q15 680 25 690Q35 700 50 700L690 700Q705 700 715 690Q725 680 725 665Z"  horiz-adv-x="740" vert-adv-y="1000"  />

      
      <glyph glyph-name="uni55" unicode="&#x55;" d="M440-20Q257-20 163.50 62Q70 144 70 290L70 665Q70 680 80 690Q90 700 105 700L255 700Q270 700 280 690Q290 680 290 665L290 290Q290 222 329.50 183.50Q369 145 440 145Q511 145 550.50 183.50Q590 222 590 290L590 665Q590 680 600 690Q610 700 625 700L775 700Q790 700 800 690Q810 680 810 665L810 291Q810 145 715.50 62.50Q621-20 440-20Z"  horiz-adv-x="880" vert-adv-y="1000"  />

      
      <glyph glyph-name="uni56" unicode="&#x56;" d="M233 665L413 210L423 210L598 665Q612 700 643 700L813 700Q829 700 837 690Q845 680 838 665L568 35Q553 1 523 1L318 0Q289 0 273 35L3 665Q-4 680 4 690Q12 700 28 700L188 700Q219 700 233 665Z"  horiz-adv-x="841" vert-adv-y="1000"  />

      
      <glyph glyph-name="uni57" unicode="&#x57;" d="M497 700L677 700Q713 700 722 665L817 270L827 270L932 665Q941 700 977 700L1137 700Q1149 700 1157.50 689.50Q1166 679 1162 665L987 35Q976 0 942 0L742 0Q706 0 697 35L592 420L582 420L477 35Q468 0 432 0L232 0Q198 0 187 35L12 665Q8 679 16.50 689.50Q25 700 37 700L197 700Q233 700 242 665L347 270L357 270L452 665Q461 700 497 700Z"  horiz-adv-x="1174" vert-adv-y="1000"  />

      
      <glyph glyph-name="uni58" unicode="&#x58;" d="M405 210L395 210L270 35Q247 0 210 0L35 0Q17 0 9 12Q1 24 10 35L250 360L30 665Q21 676 29 688Q37 700 55 700L225 700Q262 700 285 665L395 500L405 500L515 665Q538 700 575 700L745 700Q763 700 771 688Q779 676 770 665L550 360L790 35Q799 24 791 12Q783 0 765 0L590 0Q553 0 530 35L405 210Z"  horiz-adv-x="800" vert-adv-y="1000"  />

      
      <glyph glyph-name="uni59" unicode="&#x59;" d="M794 665L509 220L509 35Q509 20 499 10Q489 0 474 0L324 0Q309 0 299 10Q289 20 289 35L289 220L4 665Q-4 676 3.50 688Q11 700 29 700L184 700Q223 700 244 665L394 420L404 420L554 665Q575 700 614 700L769 700Q787 700 794.50 688Q802 676 794 665Z"  horiz-adv-x="798" vert-adv-y="1000"  />

      
      <glyph glyph-name="uni5a" unicode="&#x5a;" d="M675 500L325 180L325 170L690 170Q705 170 715 160Q725 150 725 135L725 35Q725 20 715 10Q705 0 690 0L60 0Q45 0 35 10Q25 20 25 35L25 120Q25 162 65 200L415 520L415 530L70 530Q55 530 45 540Q35 550 35 565L35 665Q35 680 45 690Q55 700 70 700L680 700Q695 700 705 690Q715 680 715 665L715 580Q715 538 675 500Z"  horiz-adv-x="750" vert-adv-y="1000"  />

      
      <glyph glyph-name="uni5b" unicode="&#x5b;" d="M440-35L440-125Q440-140 430-150Q420-160 405-160L120-160Q105-160 95-150Q85-140 85-125L85 745Q85 760 95 770Q105 780 120 780L405 780Q420 780 430 770Q440 760 440 745L440 655Q440 640 430 630Q420 620 405 620L295 620L295 0L405 0Q420 0 430-10Q440-20 440-35Z"  horiz-adv-x="450" vert-adv-y="1000"  />

      
      <glyph glyph-name="uni5c" unicode="&#x5c;" d="M374 35L14 665Q6 676 13.50 688Q21 700 39 700L184 700Q223 700 244 665L604 35Q612 24 604.50 12Q597 0 579 0L434 0Q395 0 374 35Z"  horiz-adv-x="618" vert-adv-y="1000"  />

      
      <glyph glyph-name="uni5d" unicode="&#x5d;" d="M10-125L10-35Q10-20 20-10Q30 0 45 0L155 0L155 620L45 620Q30 620 20 630Q10 640 10 655L10 745Q10 760 20 770Q30 780 45 780L330 780Q345 780 355 770Q365 760 365 745L365-125Q365-140 355-150Q345-160 330-160L45-160Q30-160 20-150Q10-140 10-125Z"  horiz-adv-x="450" vert-adv-y="1000"  />

      
      <glyph glyph-name="uni5e" unicode="&#x5e;" d="M239 700L359 700Q389 700 409 670L574 420Q582 409 575.50 399.50Q569 390 554 390L414 390Q387 390 369 420L304 530L294 530L229 420Q211 390 184 390L44 390Q29 390 22.50 399.50Q16 409 24 420L189 670Q209 700 239 700Z"  horiz-adv-x="598" vert-adv-y="1000"  />

      
      <glyph glyph-name="uni5f" unicode="&#x5f;" d="M550-85L550-175Q550-190 540-200Q530-210 515-210L45-210Q30-210 20-200Q10-190 10-175L10-85Q10-70 20-60Q30-50 45-50L515-50Q530-50 540-60Q550-70 550-85Z"  horiz-adv-x="560" vert-adv-y="1000"  />

      
      <glyph glyph-name="uni60" unicode="&#x60;" d="M269 490L189 490Q165 490 144 520L44 670Q36 681 42.50 690.50Q49 700 64 700L189 700Q217 700 229 670L289 520Q301 490 269 490Z"  horiz-adv-x="333" vert-adv-y="1000"  />

      
      <glyph glyph-name="uni61" unicode="&#x61;" d="M618 35L583 125L268 125L233 35Q219 0 188 0L28 0Q12 0 4 10Q-4 20 3 35L283 665Q299 700 328 700L533 700Q563 700 578 666L858 35Q865 20 857 10Q849 0 833 0L663 0Q632 0 618 35M423 490L338 290L513 290L433 490L423 490Z"  horiz-adv-x="861" vert-adv-y="1000"  />

      
      <glyph glyph-name="uni62" unicode="&#x62;" d="M765 505Q765 461 740 428.50Q715 396 690 386L665 375L665 365Q671 364 681 361Q691 358 717 346Q743 334 763 317.50Q783 301 799 271Q815 241 815 205Q815 117 737.50 58.50Q660 0 510 0L110 0Q95 0 85 10Q75 20 75 35L75 665Q75 680 85 690Q95 700 110 700L470 700Q616 700 690.50 645Q765 590 765 505M510 280L295 280L295 160L510 160Q546 160 565.50 176.50Q585 193 585 220Q585 247 565.50 263.50Q546 280 510 280M470 540L295 540L295 440L470 440Q535 440 535 490Q535 540 470 540Z"  horiz-adv-x="850" vert-adv-y="1000"  />

      
      <glyph glyph-name="uni63" unicode="&#x63;" d="M455 720Q621 720 718 647Q815 574 815 480Q815 440 775 440L650 440Q614 440 590 480Q543 555 455 555Q371 555 323 502.50Q275 450 275 350Q275 250 323 197.50Q371 145 455 145Q553 145 600 230Q622 270 660 270L785 270Q825 270 825 230Q825 132 725 56Q625-20 455-20Q259-20 152 79.50Q45 179 45 350Q45 521 152 620.50Q259 720 455 720Z"  horiz-adv-x="860" vert-adv-y="1000"  />

      
      <glyph glyph-name="uni64" unicode="&#x64;" d="M110 0Q95 0 85 10Q75 20 75 35L75 665Q75 680 85 690Q95 700 110 700L425 700Q623 700 729 605.50Q835 511 835 350Q835 189 729 94.50Q623 0 425 0L110 0M295 160L425 160Q512 160 558.50 208.50Q605 257 605 350Q605 443 558.50 491.50Q512 540 425 540L295 540L295 160Z"  horiz-adv-x="880" vert-adv-y="1000"  />

      
      <glyph glyph-name="uni65" unicode="&#x65;" d="M755 665L755 565Q755 550 745 540Q735 530 720 530L295 530L295 440L610 440Q625 440 635 430Q645 420 645 405L645 305Q645 290 635 280Q625 270 610 270L295 270L295 170L720 170Q735 170 745 160Q755 150 755 135L755 35Q755 20 745 10Q735 0 720 0L110 0Q95 0 85 10Q75 20 75 35L75 665Q75 680 85 690Q95 700 110 700L720 700Q735 700 745 690Q755 680 755 665Z"  horiz-adv-x="790" vert-adv-y="1000"  />

      
      <glyph glyph-name="uni66" unicode="&#x66;" d="M735 665L735 565Q735 550 725 540Q715 530 700 530L295 530L295 400L610 400Q625 400 635 390Q645 380 645 365L645 265Q645 250 635 240Q625 230 610 230L295 230L295 35Q295 20 285 10Q275 0 260 0L110 0Q95 0 85 10Q75 20 75 35L75 665Q75 680 85 690Q95 700 110 700L700 700Q715 700 725 690Q735 680 735 665Z"  horiz-adv-x="760" vert-adv-y="1000"  />

      
      <glyph glyph-name="uni67" unicode="&#x67;" d="M830 365L830 280Q830 155 727.50 67.50Q625-20 455-20Q259-20 152 79.50Q45 179 45 350Q45 521 152 620.50Q259 720 455 720Q620 720 717.50 648.50Q815 577 815 490Q815 471 804 460.50Q793 450 775 450L650 450Q620 450 590 490Q568 521 538.50 538Q509 555 455 555Q371 555 323 502.50Q275 450 275 350Q275 250 323 197.50Q371 145 455 145Q572 145 610 240L498 240Q483 240 473 250Q463 260 463 275L463 365Q463 380 473 390Q483 400 498 400L795 400Q810 400 820 390Q830 380 830 365Z"  horiz-adv-x="875" vert-adv-y="1000"  />

      
      <glyph glyph-name="uni68" unicode="&#x68;" d="M805 665L805 35Q805 20 795 10Q785 0 770 0L620 0Q605 0 595 10Q585 20 585 35L585 260L295 260L295 35Q295 20 285 10Q275 0 260 0L110 0Q95 0 85 10Q75 20 75 35L75 665Q75 680 85 690Q95 700 110 700L260 700Q275 700 285 690Q295 680 295 665L295 430L585 430L585 665Q585 680 595 690Q605 700 620 700L770 700Q785 700 795 690Q805 680 805 665Z"  horiz-adv-x="880" vert-adv-y="1000"  />

      
      <glyph glyph-name="uni69" unicode="&#x69;" d="M515 665L515 565Q515 550 505 540Q495 530 480 530L385 530L385 170L480 170Q495 170 505 160Q515 150 515 135L515 35Q515 20 505 10Q495 0 480 0L70 0Q55 0 45 10Q35 20 35 35L35 135Q35 150 45 160Q55 170 70 170L165 170L165 530L70 530Q55 530 45 540Q35 550 35 565L35 665Q35 680 45 690Q55 700 70 700L480 700Q495 700 505 690Q515 680 515 665Z"  horiz-adv-x="550" vert-adv-y="1000"  />

      
      <glyph glyph-name="uni6a" unicode="&#x6a;" d="M180 160L190 160Q242 160 271 189Q300 218 300 270L300 665Q300 680 310 690Q320 700 335 700L485 700Q500 700 510 690Q520 680 520 665L520 266Q520-10 190-10L55-10Q40-10 30 0Q20 10 20 25L20 135Q20 150 30 160Q40 170 55 170L110 170Q120 170 145 165Q170 160 180 160Z"  horiz-adv-x="590" vert-adv-y="1000"  />

      
      <glyph glyph-name="uni6b" unicode="&#x6b;" d="M585 370L585 360Q588 359 593 357Q598 355 613.50 345Q629 335 644.50 321Q660 307 681 280.50Q702 254 720 220L820 35Q826 23 819.50 11.50Q813 0 795 0L640 0Q594 0 575 35L475 220Q461 245 442 257.50Q423 270 385 270L295 270L295 35Q295 20 285 10Q275 0 260 0L110 0Q95 0 85 10Q75 20 75 35L75 665Q75 680 85 690Q95 700 110 700L260 700Q275 700 285 690Q295 680 295 665L295 440L370 440Q408 440 427 452.50Q446 465 460 490L555 665Q574 700 620 700L775 700Q793 700 799.50 688.50Q806 677 800 665L705 490Q681 446 651 416Q621 386 603 378L585 370Z"  horiz-adv-x="838" vert-adv-y="1000"  />

      
      <glyph glyph-name="uni6c" unicode="&#x6c;" d="M705 135L705 35Q705 20 695 10Q685 0 670 0L110 0Q95 0 85 10Q75 20 75 35L75 665Q75 680 85 690Q95 700 110 700L260 700Q275 700 285 690Q295 680 295 665L295 170L670 170Q685 170 695 160Q705 150 705 135Z"  horiz-adv-x="720" vert-adv-y="1000"  />

      
      <glyph glyph-name="uni6d" unicode="&#x6d;" d="M616 0L495 0Q474 0 459.50 11Q445 22 440 35L305 365L295 365L295 35Q295 20 285 10Q275 0 260 0L110 0Q95 0 85 10Q75 20 75 35L75 665Q75 680 85 690Q95 700 110 700L320 700Q341 700 355.50 689Q370 678 375 665L550 240L560 240L735 665Q740 678 754.50 689Q769 700 790 700L1000 700Q1015 700 1025 690Q1035 680 1035 665L1035 35Q1035 20 1025 10Q1015 0 1000 0L850 0Q835 0 825 10Q815 20 815 35L815 365L805 365L671 35Q666 22 651.50 11Q637 0 616 0Z"  horiz-adv-x="1110" vert-adv-y="1000"  />

      
      <glyph glyph-name="uni6e" unicode="&#x6e;" d="M585 300L595 300L595 665Q595 680 605 690Q615 700 630 700L780 700Q795 700 805 690Q815 680 815 665L815 35Q815 20 805 10Q795 0 780 0L610 0Q578 0 555 35L305 400L295 400L295 35Q295 20 285 10Q275 0 260 0L110 0Q95 0 85 10Q75 20 75 35L75 665Q75 680 85 690Q95 700 110 700L280 700Q312 700 335 665L585 300Z"  horiz-adv-x="890" vert-adv-y="1000"  />

      
      <glyph glyph-name="uni6f" unicode="&#x6f;" d="M323 197.50Q323 197.50 347 171.25Q371 145 455 145Q539 145 587 197.50Q635 250 635 350Q635 450 587 502.50Q539 555 455 555Q371 555 323 502.50Q275 450 275 350Q275 250 323 197.50M152 620.50Q152 620.50 205.50 670.25Q259 720 455 720Q651 720 758 620.50Q865 521 865 350Q865 179 758 79.50Q651-20 455-20Q259-20 152 79.50Q45 179 45 350Q45 521 152 620.50Z"  horiz-adv-x="910" vert-adv-y="1000"  />

      
      <glyph glyph-name="uni70" unicode="&#x70;" d="M717 629.50Q717 629.50 761 594.25Q805 559 805 445Q805 331 717 260.50Q629 190 460 190L295 190L295 35Q295 20 285 10Q275 0 260 0L110 0Q95 0 85 10Q75 20 75 35L75 665Q75 680 85 690Q95 700 110 700L460 700Q629 700 717 629.50M295 350L460 350Q515 350 545 376Q575 402 575 445Q575 488 545 514Q515 540 460 540L295 540L295 350Z"  horiz-adv-x="830" vert-adv-y="1000"  />

      
      <glyph glyph-name="uni71" unicode="&#x71;" d="M323 502.50Q323 502.50 299 476.25Q275 450 275 350Q275 250 323 197.50Q371 145 455 145Q539 145 587 197.50Q635 250 635 350Q635 450 587 502.50Q539 555 455 555Q371 555 323 502.50M865 349Q865 301 847.50 256Q830 211 812 190L795 170L795 160L880 160Q895 160 905 150Q915 140 915 125L915 25Q915 10 905 0Q895-10 880-10L455-10Q260-10 152.50 87.50Q45 185 45 350Q45 521 152 620.50Q259 720 455 720Q651 720 758 620.50Q865 521 865 349Z"  horiz-adv-x="935" vert-adv-y="1000"  />

      
      <glyph glyph-name="uni72" unicode="&#x72;" d="M665 310L665 300Q670 298 679 292Q688 286 713 258Q738 230 760 190L845 35Q851 23 844.50 11.50Q838 0 820 0L665 0Q619 0 600 35L515 190Q501 215 482 227.50Q463 240 425 240L295 240L295 35Q295 20 285 10Q275 0 260 0L110 0Q95 0 85 10Q75 20 75 35L75 665Q75 680 85 690Q95 700 110 700L475 700Q633 700 716.50 635Q800 570 800 470Q800 434 786 404Q772 374 752 357.50Q732 341 712.50 329.50Q693 318 679 314L665 310M295 400L475 400Q522 400 546 419Q570 438 570 470Q570 502 546 521Q522 540 475 540L295 540L295 400Z"  horiz-adv-x="863" vert-adv-y="1000"  />

      
      <glyph glyph-name="uni73" unicode="&#x73;" d="M280 495Q280 468 330 454.50Q380 441 451 431Q522 421 593.50 403Q665 385 715 336.50Q765 288 765 210Q765 112 672.50 46Q580-20 400-20Q218-20 124 44.50Q30 109 30 200Q30 240 70 240L195 240Q232 240 255 200Q288 145 400 145Q469 145 502 164.50Q535 184 535 210Q535 237 485 250.50Q435 264 364 274Q293 284 221.50 302Q150 320 100 368.50Q50 417 50 495Q50 592 138 656Q226 720 400 720Q561 720 650.50 656.50Q740 593 740 510Q740 470 700 470L575 470Q537 470 515 510Q488 555 400 555Q338 555 309 537.50Q280 520 280 495Z"  horiz-adv-x="795" vert-adv-y="1000"  />

      
      <glyph glyph-name="uni74" unicode="&#x74;" d="M725 665L725 565Q725 550 715 540Q705 530 690 530L480 530L480 35Q480 20 470 10Q460 0 445 0L295 0Q280 0 270 10Q260 20 260 35L260 530L50 530Q35 530 25 540Q15 550 15 565L15 665Q15 680 25 690Q35 700 50 700L690 700Q705 700 715 690Q725 680 725 665Z"  horiz-adv-x="740" vert-adv-y="1000"  />

      
      <glyph glyph-name="uni75" unicode="&#x75;" d="M440-20Q257-20 163.50 62Q70 144 70 290L70 665Q70 680 80 690Q90 700 105 700L255 700Q270 700 280 690Q290 680 290 665L290 290Q290 222 329.50 183.50Q369 145 440 145Q511 145 550.50 183.50Q590 222 590 290L590 665Q590 680 600 690Q610 700 625 700L775 700Q790 700 800 690Q810 680 810 665L810 291Q810 145 715.50 62.50Q621-20 440-20Z"  horiz-adv-x="880" vert-adv-y="1000"  />

      
      <glyph glyph-name="uni76" unicode="&#x76;" d="M233 665L413 210L423 210L598 665Q612 700 643 700L813 700Q829 700 837 690Q845 680 838 665L568 35Q553 1 523 1L318 0Q289 0 273 35L3 665Q-4 680 4 690Q12 700 28 700L188 700Q219 700 233 665Z"  horiz-adv-x="841" vert-adv-y="1000"  />

      
      <glyph glyph-name="uni77" unicode="&#x77;" d="M497 700L677 700Q713 700 722 665L817 270L827 270L932 665Q941 700 977 700L1137 700Q1149 700 1157.50 689.50Q1166 679 1162 665L987 35Q976 0 942 0L742 0Q706 0 697 35L592 420L582 420L477 35Q468 0 432 0L232 0Q198 0 187 35L12 665Q8 679 16.50 689.50Q25 700 37 700L197 700Q233 700 242 665L347 270L357 270L452 665Q461 700 497 700Z"  horiz-adv-x="1174" vert-adv-y="1000"  />

      
      <glyph glyph-name="uni78" unicode="&#x78;" d="M405 210L395 210L270 35Q247 0 210 0L35 0Q17 0 9 12Q1 24 10 35L250 360L30 665Q21 676 29 688Q37 700 55 700L225 700Q262 700 285 665L395 500L405 500L515 665Q538 700 575 700L745 700Q763 700 771 688Q779 676 770 665L550 360L790 35Q799 24 791 12Q783 0 765 0L590 0Q553 0 530 35L405 210Z"  horiz-adv-x="800" vert-adv-y="1000"  />

      
      <glyph glyph-name="uni79" unicode="&#x79;" d="M794 665L509 220L509 35Q509 20 499 10Q489 0 474 0L324 0Q309 0 299 10Q289 20 289 35L289 220L4 665Q-4 676 3.50 688Q11 700 29 700L184 700Q223 700 244 665L394 420L404 420L554 665Q575 700 614 700L769 700Q787 700 794.50 688Q802 676 794 665Z"  horiz-adv-x="798" vert-adv-y="1000"  />

      
      <glyph glyph-name="uni7a" unicode="&#x7a;" d="M675 500L325 180L325 170L690 170Q705 170 715 160Q725 150 725 135L725 35Q725 20 715 10Q705 0 690 0L60 0Q45 0 35 10Q25 20 25 35L25 120Q25 162 65 200L415 520L415 530L70 530Q55 530 45 540Q35 550 35 565L35 665Q35 680 45 690Q55 700 70 700L680 700Q695 700 705 690Q715 680 715 665L715 580Q715 538 675 500Z"  horiz-adv-x="750" vert-adv-y="1000"  />

      
      <glyph glyph-name="uni7b" unicode="&#x7b;" d="M234 315L234 305Q238 304 245.50 301Q253 298 271 287.50Q289 277 303 263Q317 249 328.50 224Q340 199 340 170L340 70Q340 40 360 20Q380 0 410 0L430 0Q445 0 455-10Q465-20 465-35L465-125Q465-140 455-150Q445-160 430-160L410-160Q130-160 130 70L130 170Q130 193 113 209Q96 225 70 225L55 225Q40 225 30 235Q20 245 20 260L20 360Q20 375 30 385Q40 395 55 395L70 395Q96 395 113 411Q130 427 130 450L130 550Q130 780 410 780L430 780Q445 780 455 770Q465 760 465 745L465 655Q465 640 455 630Q445 620 430 620L410 620Q380 620 360 600Q340 580 340 550L340 450Q340 421 329 396Q318 371 302.50 357Q287 343 271.50 332.50Q256 322 245 318L234 315Z"  horiz-adv-x="475" vert-adv-y="1000"  />

      
      <glyph glyph-name="uni7c" unicode="&#x7c;" d="M290 815L290-115Q290-130 280-140Q270-150 255-150L115-150Q100-150 90-140Q80-130 80-115L80 815Q80 830 90 840Q100 850 115 850L255 850Q270 850 280 840Q290 830 290 815Z"  horiz-adv-x="370" vert-adv-y="1000"  />

      
      <glyph glyph-name="uni7d" unicode="&#x7d;" d="M240 305L240 315Q236 316 229 319Q222 322 203.50 332.50Q185 343 171.50 357Q158 371 146.50 396Q135 421 135 450L135 550Q135 580 115 600Q95 620 65 620L45 620Q30 620 20 630Q10 640 10 655L10 745Q10 760 20 770Q30 780 45 780L65 780Q345 780 345 550L345 450Q345 427 362 411Q379 395 405 395L420 395Q435 395 445 385Q455 375 455 360L455 260Q455 245 445 235Q435 225 420 225L405 225Q379 225 362 209Q345 193 345 170L345 70Q345-160 65-160L45-160Q30-160 20-150Q10-140 10-125L10-35Q10-20 20-10Q30 0 45 0L65 0Q95 0 115 20Q135 40 135 70L135 170Q135 217 161.50 250.50Q188 284 214 294L240 305Z"  horiz-adv-x="475" vert-adv-y="1000"  />

      
      <glyph glyph-name="uni7e" unicode="&#x7e;" d="M605 270Q605 255 595 245Q585 235 570 235L465 235Q448 235 438.50 245Q429 255 425 267.50Q421 280 411.50 290Q402 300 385 300Q373 300 350 282.50Q327 265 290 247.50Q253 230 205 230Q135 230 87.50 283.50Q40 337 40 425Q40 440 50 450Q60 460 75 460L180 460Q197 460 206.50 450Q216 440 220 427.50Q224 415 233.50 405Q243 395 260 395Q272 395 295 412.50Q318 430 355 447.50Q392 465 440 465Q510 465 557.50 411.50Q605 358 605 270Z"  horiz-adv-x="645" vert-adv-y="1000"  />

      
      <glyph glyph-name="unia4" unicode="&#xa4;" d="M690 195L690 145Q690 130 680 120Q670 110 655 110L325 110L325 35Q325 20 315 10Q305 0 290 0L140 0Q125 0 115 10Q105 20 105 35L105 110L55 110Q40 110 30 120Q20 130 20 145L20 195Q20 210 30 220Q40 230 55 230L105 230L105 270L55 270Q40 270 30 280Q20 290 20 305L20 355Q20 370 30 380Q40 390 55 390L105 390L105 665Q105 680 115 690Q125 700 140 700L490 700Q648 700 731.50 634Q815 568 815 465Q815 383 733.50 326.50Q652 270 490 270L325 270L325 230L655 230Q670 230 680 220Q690 210 690 195M325 390L490 390Q533 390 559 412Q585 434 585 465Q585 496 559 518Q533 540 490 540L325 540L325 390Z"  horiz-adv-x="845" vert-adv-y="1000"  />

      
      <glyph glyph-name="unia6" unicode="&#xa6;" d="M290 245L290-115Q290-130 280-140Q270-150 255-150L115-150Q100-150 90-140Q80-130 80-115L80 245Q80 260 90 270Q100 280 115 280L255 280Q270 280 280 270Q290 260 290 245M290 815L290 455Q290 440 280 430Q270 420 255 420L115 420Q100 420 90 430Q80 440 80 455L80 815Q80 830 90 840Q100 850 115 850L255 850Q270 850 280 840Q290 830 290 815Z"  horiz-adv-x="370" vert-adv-y="1000"  />

      
      <glyph glyph-name="unia7" unicode="&#xa7;" d="M65 530Q65 607 141 663.50Q217 720 355 720Q482 720 551 670.50Q620 621 620 555Q620 540 610 530Q600 520 585 520L465 520Q442 520 415.50 545Q389 570 355 570Q320 570 300 555Q280 540 280 520Q280 497 316.50 484Q353 471 405 460.50Q457 450 509.50 433.50Q562 417 598.50 375.50Q635 334 635 270Q635 228 613.50 196.50Q592 165 571 155L550 145L550 135Q554 134 560 131Q566 128 581.50 117Q597 106 609 92Q621 78 630.50 52Q640 26 640-5Q640-83 558-141.50Q476-200 325-200Q189-200 117-151Q45-102 45-35Q45-20 55-10Q65 0 80 0L200 0Q216 0 228.50-8Q241-16 249-25Q257-34 276.50-42Q296-50 325-50Q374-50 399.50-33Q425-16 425 5Q425 24 398 37Q371 50 330.50 56.50Q290 63 242.50 76Q195 89 154.50 106.50Q114 124 87 162.50Q60 201 60 255Q60 282 69 304.50Q78 327 90 340.50Q102 354 114.50 363.50Q127 373 136 376L145 380L145 390Q142 391 136.50 394Q131 397 117 408Q103 419 92.50 433Q82 447 73.50 473Q65 499 65 530M385 205Q389 207 395 210.50Q401 214 410.50 228Q420 242 420 260Q420 284 392.50 299Q365 314 338 317L310 320Q306 318 300 314.50Q294 311 284.50 297Q275 283 275 265Q275 241 302.50 226Q330 211 358 208L385 205Z"  horiz-adv-x="685" vert-adv-y="1000"  />

      
      <glyph glyph-name="unia9" unicode="&#xa9;" d="M737 141Q737 141 778.50 181.50Q820 222 820 350Q820 478 737 559Q654 640 520 640Q386 640 303 559Q220 478 220 350Q220 222 303 141Q386 60 520 60Q654 60 737 141M858.50 656.50Q858.50 656.50 924.25 594.75Q990 533 990 350Q990 167 858.50 43.50Q727-80 520-80Q313-80 181.50 43.50Q50 167 50 350Q50 533 181.50 656.50Q313 780 520 780Q727 780 858.50 656.50M364 204Q364 204 334.50 231Q305 258 305 350Q305 442 364 496Q423 550 530 550Q619 550 672 508Q725 466 725 410Q725 402 718.50 396Q712 390 704 390L615 390Q608 390 602 392.50Q596 395 594 396Q592 397 586 404L580 410Q555 435 530 435Q496 435 475.50 413Q455 391 455 350Q455 309 475.50 287Q496 265 530 265Q565 265 585 295Q597 315 620 315L709 315Q717 315 723.50 309Q730 303 730 295Q730 235 676.50 192.50Q623 150 530 150Q423 150 364 204Z"  horiz-adv-x="1040" vert-adv-y="1000"  />

      
      <glyph glyph-name="uniab" unicode="&#xab;" d="M42 295L127 430Q147 460 172 460L287 460Q299 460 304 450.50Q309 441 302 430L192 260L302 90Q309 79 304 69.50Q299 60 287 60L172 60Q147 60 127 90L42 225Q20 260 42 295M287 295L372 430Q392 460 417 460L532 460Q544 460 549 450.50Q554 441 547 430L437 260L547 90Q554 79 549 69.50Q544 60 532 60L417 60Q392 60 372 90L287 225Q265 260 287 295Z"  horiz-adv-x="592" vert-adv-y="1000"  />

      
      <glyph glyph-name="uniac" unicode="&#xac;" d="M580 435L580 215Q580 200 570 190Q560 180 545 180L425 180Q410 180 400 190Q390 200 390 215L390 310L75 310Q60 310 50 320Q40 330 40 345L40 435Q40 450 50 460Q60 470 75 470L545 470Q560 470 570 460Q580 450 580 435Z"  horiz-adv-x="630" vert-adv-y="1000"  />

      
      <glyph glyph-name="uniad" unicode="&#xad;" d="M540 375L540 285Q540 270 530 260Q520 250 505 250L75 250Q60 250 50 260Q40 270 40 285L40 375Q40 390 50 400Q60 410 75 410L505 410Q520 410 530 400Q540 390 540 375Z"  horiz-adv-x="580" vert-adv-y="1000"  />

      
      <glyph glyph-name="uniae" unicode="&#xae;" d="M737 141Q737 141 778.50 181.50Q820 222 820 350Q820 478 737 559Q654 640 520 640Q386 640 303 559Q220 478 220 350Q220 222 303 141Q386 60 520 60Q654 60 737 141M858.50 656.50Q858.50 656.50 924.25 594.75Q990 533 990 350Q990 167 858.50 43.50Q727-80 520-80Q313-80 181.50 43.50Q50 167 50 350Q50 533 181.50 656.50Q313 780 520 780Q727 780 858.50 656.50M640 320L640 315Q672 304 695 265L745 180Q749 172 745 166Q741 160 730 160L620 160Q595 160 585 180L535 265Q524 285 496 285L470 285L470 180Q470 172 464 166Q458 160 450 160L344 160Q337 160 331 166.50Q325 173 325 180L325 520Q325 528 331.50 534Q338 540 345 540L530 540Q626 540 675.50 503Q725 466 725 410Q725 379 703.50 356.50Q682 334 661 327L640 320M470 380L530 380Q548 380 559 389Q570 398 570 410Q570 422 559 431Q548 440 530 440L470 440L470 380Z"  horiz-adv-x="1040" vert-adv-y="1000"  />

      
      <glyph glyph-name="unib0" unicode="&#xb0;" d="M254 503Q254 503 262 512Q270 521 270 550Q270 579 254 597Q238 615 215 615Q192 615 176 597Q160 579 160 550Q160 521 176 503Q192 485 215 485Q238 485 254 503M348 671Q348 671 374 646.50Q400 622 400 550Q400 478 348 429Q296 380 215 380Q134 380 82 429Q30 478 30 550Q30 622 82 671Q134 720 215 720Q296 720 348 671Z"  horiz-adv-x="430" vert-adv-y="1000"  />

      
      <glyph glyph-name="unib1" unicode="&#xb1;" d="M60 75L60 155Q60 170 70 180Q80 190 95 190L235 190L235 300L85 300Q70 300 60 310Q50 320 50 335L50 425Q50 440 60 450Q70 460 85 460L235 460L235 610Q235 625 245 635Q255 645 270 645L360 645Q375 645 385 635Q395 625 395 610L395 460L545 460Q560 460 570 450Q580 440 580 425L580 335Q580 320 570 310Q560 300 545 300L395 300L395 190L535 190Q550 190 560 180Q570 170 570 155L570 75Q570 60 560 50Q550 40 535 40L95 40Q80 40 70 50Q60 60 60 75Z"  horiz-adv-x="630" vert-adv-y="1000"  />

      
      <glyph glyph-name="unib5" unicode="&#xb5;" d="M60-150L60 491Q60 502 69.50 511.50Q79 521 90 521L230 521Q241 521 250.50 511.50Q260 502 260 491L260 211Q260 173 283 151.50Q306 130 350 130Q372 130 397 140Q422 150 436 160L450 171L450 491Q450 502 459.50 511.50Q469 521 480 521L620 521Q631 521 640.50 511.50Q650 502 650 491L650 31Q650 20 640.50 10.50Q631 1 620 1L480 1Q469 1 459.50 10.50Q450 20 450 31L450 41L440 41Q436 35 426.50 26.50Q417 18 383.50 4Q350-10 310-10Q297-10 284.50-7Q272-4 266-2L260 1L260-150Q260-161 250.50-170.50Q241-180 230-180L90-180Q79-180 69.50-170.50Q60-161 60-150Z"  horiz-adv-x="710" vert-adv-y="1000"  />

      
      <glyph glyph-name="unib6" unicode="&#xb6;" d="M220 700L700 700Q715 700 725 690Q735 680 735 665L735 565Q735 550 725 540Q715 530 700 530L640 530L640-145Q640-160 630-170Q620-180 605-180L495-180Q480-180 470-170Q460-160 460-145L460 530L400 530L400-145Q400-160 390-170Q380-180 365-180L255-180Q240-180 230-170Q220-160 220-145L220 320Q135 320 77.50 375.50Q20 431 20 510Q20 589 77.50 644.50Q135 700 220 700Z"  horiz-adv-x="745" vert-adv-y="1000"  />

      
      <glyph glyph-name="unib7" unicode="&#xb7;" d="M65 305L65 375Q65 394 80.50 409.50Q96 425 115 425L215 425Q234 425 249.50 409.50Q265 394 265 375L265 305Q265 286 249.50 270.50Q234 255 215 255L115 255Q96 255 80.50 270.50Q65 286 65 305Z"  horiz-adv-x="330" vert-adv-y="1000"  />

      
      <glyph glyph-name="unibb" unicode="&#xbb;" d="M465 430L550 295Q572 260 550 225L465 90Q445 60 420 60L305 60Q293 60 288 69.50Q283 79 290 90L400 260L290 430Q283 441 288 450.50Q293 460 305 460L420 460Q445 460 465 430M220 430L305 295Q327 260 305 225L220 90Q200 60 175 60L60 60Q48 60 43 69.50Q38 79 45 90L155 260L45 430Q38 441 43 450.50Q48 460 60 460L175 460Q200 460 220 430Z"  horiz-adv-x="592" vert-adv-y="1000"  />

      
      <glyph glyph-name="uni0401" unicode="&#x0401;" d="M190 825L190 895Q190 914 205.50 929.50Q221 945 240 945L330 945Q349 945 364.50 929.50Q380 914 380 895L380 825Q380 806 364.50 790.50Q349 775 330 775L240 775Q221 775 205.50 790.50Q190 806 190 825M450 825L450 895Q450 914 465.50 929.50Q481 945 500 945L590 945Q609 945 624.50 929.50Q640 914 640 895L640 825Q640 806 624.50 790.50Q609 775 590 775L500 775Q481 775 465.50 790.50Q450 806 450 825M755 565L755 665Q755 680 745 690Q735 700 720 700L110 700Q95 700 85 690Q75 680 75 665L75 35Q75 20 85 10Q95 0 110 0L720 0Q735 0 745 10Q755 20 755 35L755 135Q755 150 745 160Q735 170 720 170L295 170L295 270L610 270Q625 270 635 280Q645 290 645 305L645 405Q645 420 635 430Q625 440 610 440L295 440L295 530L720 530Q735 530 745 540Q755 550 755 565Z"  horiz-adv-x="790" vert-adv-y="1000"  />

      
      <glyph glyph-name="uni0402" unicode="&#x0402;" d="M640 215Q640 248 610 269Q580 290 520 290Q493 290 462 285Q431 280 413 275L395 270L395 35Q395 20 385 10Q375 0 360 0L210 0Q195 0 185 10Q175 20 175 35L175 530L35 530Q20 530 10 540Q0 550 0 565L0 665Q0 680 10 690Q20 700 35 700L535 700Q550 700 560 690Q570 680 570 665L570 565Q570 550 560 540Q550 530 535 530L395 530L395 440Q470 460 550 460Q695 460 777.50 390.50Q860 321 860 215Q860 105 793 42.50Q726-20 600-20Q561-20 521-10Q490-3 490 25L490 130Q490 141 499.50 150.50Q509 160 520 160L530 160Q538 160 550 157.50Q562 155 570 155Q603 155 621.50 171.50Q640 188 640 215Z"  horiz-adv-x="885" vert-adv-y="1000"  />

      
      <glyph glyph-name="uni0403" unicode="&#x0403;" d="M705 565L705 665Q705 680 695 690Q685 700 670 700L110 700Q95 700 85 690Q75 680 75 665L75 35Q75 20 85 10Q95 0 110 0L260 0Q275 0 285 10Q295 20 295 35L295 530L670 530Q685 530 695 540Q705 550 705 565M425 780L345 780Q313 780 325 810L385 960Q397 990 425 990L550 990Q565 990 571.50 980.50Q578 971 570 960L470 810Q449 780 425 780Z"  horiz-adv-x="715" vert-adv-y="1000"  />

      
      <glyph glyph-name="uni0404" unicode="&#x0404;" d="M455 720Q621 720 718 647Q815 574 815 480Q815 440 775 440L650 440Q614 440 590 480Q543 555 455 555Q327 555 285 430L525 430Q540 430 550 420Q560 410 560 395L560 305Q560 290 550 280Q540 270 525 270L285 270Q301 214 344 179.50Q387 145 455 145Q553 145 600 230Q622 270 660 270L785 270Q825 270 825 230Q825 132 725 56Q625-20 455-20Q259-20 152 79.50Q45 179 45 350Q45 521 152 620.50Q259 720 455 720Z"  horiz-adv-x="860" vert-adv-y="1000"  />

      
      <glyph glyph-name="uni0405" unicode="&#x0405;" d="M280 495Q280 468 330 454.50Q380 441 451 431Q522 421 593.50 403Q665 385 715 336.50Q765 288 765 210Q765 112 672.50 46Q580-20 400-20Q218-20 124 44.50Q30 109 30 200Q30 240 70 240L195 240Q232 240 255 200Q288 145 400 145Q469 145 502 164.50Q535 184 535 210Q535 237 485 250.50Q435 264 364 274Q293 284 221.50 302Q150 320 100 368.50Q50 417 50 495Q50 592 138 656Q226 720 400 720Q561 720 650.50 656.50Q740 593 740 510Q740 470 700 470L575 470Q537 470 515 510Q488 555 400 555Q338 555 309 537.50Q280 520 280 495Z"  horiz-adv-x="795" vert-adv-y="1000"  />

      
      <glyph glyph-name="uni0406" unicode="&#x0406;" d="M515 665L515 565Q515 550 505 540Q495 530 480 530L385 530L385 170L480 170Q495 170 505 160Q515 150 515 135L515 35Q515 20 505 10Q495 0 480 0L70 0Q55 0 45 10Q35 20 35 35L35 135Q35 150 45 160Q55 170 70 170L165 170L165 530L70 530Q55 530 45 540Q35 550 35 565L35 665Q35 680 45 690Q55 700 70 700L480 700Q495 700 505 690Q515 680 515 665Z"  horiz-adv-x="550" vert-adv-y="1000"  />

      
      <glyph glyph-name="uni0407" unicode="&#x0407;" d="M515 565L515 665Q515 680 505 690Q495 700 480 700L70 700Q55 700 45 690Q35 680 35 665L35 565Q35 550 45 540Q55 530 70 530L165 530L165 170L70 170Q55 170 45 160Q35 150 35 135L35 35Q35 20 45 10Q55 0 70 0L480 0Q495 0 505 10Q515 20 515 35L515 135Q515 150 505 160Q495 170 480 170L385 170L385 530L480 530Q495 530 505 540Q515 550 515 565M50 830L50 900Q50 919 65.50 934.50Q81 950 100 950L190 950Q209 950 224.50 934.50Q240 919 240 900L240 830Q240 811 224.50 795.50Q209 780 190 780L100 780Q81 780 65.50 795.50Q50 811 50 830M310 830L310 900Q310 919 325.50 934.50Q341 950 360 950L450 950Q469 950 484.50 934.50Q500 919 500 900L500 830Q500 811 484.50 795.50Q469 780 450 780L360 780Q341 780 325.50 795.50Q310 811 310 830Z"  horiz-adv-x="550" vert-adv-y="1000"  />

      
      <glyph glyph-name="uni0408" unicode="&#x0408;" d="M180 160L190 160Q242 160 271 189Q300 218 300 270L300 665Q300 680 310 690Q320 700 335 700L485 700Q500 700 510 690Q520 680 520 665L520 266Q520-10 190-10L55-10Q40-10 30 0Q20 10 20 25L20 135Q20 150 30 160Q40 170 55 170L110 170Q120 170 145 165Q170 160 180 160Z"  horiz-adv-x="590" vert-adv-y="1000"  />

      
      <glyph glyph-name="uni0409" unicode="&#x0409;" d="M791 665L791 490L946 490Q1112 490 1196.50 422.50Q1281 355 1281 245Q1281 135 1196.50 67.50Q1112 0 946 0L606 0Q591 0 581 10Q571 20 571 35L571 530L461 530Q369 530 346 440L246 35Q237 0 207 0L56 0Q37 0 27 10.50Q17 21 21 35L121 440Q186 700 461 700L756 700Q771 700 781 690Q791 680 791 665M1024 183Q1024 183 1037.50 194.50Q1051 206 1051 245Q1051 284 1024 307Q997 330 946 330L791 330L791 160L946 160Q997 160 1024 183Z"  horiz-adv-x="1301" vert-adv-y="1000"  />

      
      <glyph glyph-name="uni040A" unicode="&#x040A;" d="M795 665L795 460L965 460Q1123 460 1204 396.50Q1285 333 1285 230Q1285 127 1204 63.50Q1123 0 965 0L610 0Q595 0 585 10Q575 20 575 35L575 290L295 290L295 35Q295 20 285 10Q275 0 260 0L110 0Q95 0 85 10Q75 20 75 35L75 665Q75 680 85 690Q95 700 110 700L260 700Q275 700 285 690Q295 680 295 665L295 460L575 460L575 665Q575 680 585 690Q595 700 610 700L760 700Q775 700 785 690Q795 680 795 665M1031.50 179.50Q1031.50 179.50 1043.25 189.25Q1055 199 1055 230Q1055 261 1031.50 280.50Q1008 300 965 300L795 300L795 160L965 160Q1008 160 1031.50 179.50Z"  horiz-adv-x="1305" vert-adv-y="1000"  />

      
      <glyph glyph-name="uni040B" unicode="&#x040B;" d="M630 35L630 190Q630 236 599.50 263Q569 290 510 290Q483 290 454.50 285Q426 280 410 275L395 270L395 35Q395 20 385 10Q375 0 360 0L210 0Q195 0 185 10Q175 20 175 35L175 530L35 530Q20 530 10 540Q0 550 0 565L0 665Q0 680 10 690Q20 700 35 700L535 700Q550 700 560 690Q570 680 570 665L570 565Q570 550 560 540Q550 530 535 530L395 530L395 440Q460 460 540 460Q687 460 768.50 386.50Q850 313 850 190L850 35Q850 20 840 10Q830 0 815 0L665 0Q650 0 640 10Q630 20 630 35Z"  horiz-adv-x="900" vert-adv-y="1000"  />

      
      <glyph glyph-name="uni040C" unicode="&#x040C;" d="M585 370L585 360Q588 359 593 357Q598 355 613.50 345Q629 335 644.50 321Q660 307 681 280.50Q702 254 720 220L820 35Q826 23 819.50 11.50Q813 0 795 0L640 0Q594 0 575 35L475 220Q461 245 442 257.50Q423 270 385 270L295 270L295 35Q295 20 285 10Q275 0 260 0L110 0Q95 0 85 10Q75 20 75 35L75 665Q75 680 85 690Q95 700 110 700L260 700Q275 700 285 690Q295 680 295 665L295 440L370 440Q408 440 427 452.50Q446 465 460 490L555 665Q574 700 620 700L775 700Q793 700 799.50 688.50Q806 677 800 665L705 490Q681 446 651 416Q621 386 603 378L585 370M455 760L375 760Q343 760 355 790L415 940Q427 970 455 970L580 970Q595 970 601.50 960.50Q608 951 600 940L500 790Q479 760 455 760Z"  horiz-adv-x="838" vert-adv-y="1000"  />

      
      <glyph glyph-name="uni040E" unicode="&#x040E;" d="M367 891Q367 891 376 883Q385 875 410 875Q435 875 453 891Q471 907 475 930Q479 950 500 950L595 950Q602 950 608.50 944Q615 938 615 930Q615 850 560.50 800Q506 750 410 750Q314 750 259.50 800Q205 850 205 930Q205 938 211.50 944Q218 950 225 950L320 950Q341 950 345 930Q349 907 367 891M578 665L478 400L398 400Q344 400 318 460L233 665Q219 700 183 700L33 700Q14 700 5.50 690Q-3 680 3 665L88 460Q136 345 205 290Q274 235 393 235L418 235L413 220Q406 200 386 185Q366 170 338 170L328 170Q318 170 293 175Q268 180 258 180L213 180Q198 180 188 170Q178 160 178 145L178 35Q178 20 188 10Q198 0 213 0L338 0Q456 0 527 56.50Q598 113 638 220L803 665Q808 680 800 690Q792 700 773 700L628 700Q590 700 578 665Z"  horiz-adv-x="815" vert-adv-y="1000"  />

      
      <glyph glyph-name="uni040F" unicode="&#x040F;" d="M805 665L805 35Q805 20 795 10Q785 0 770 0L550 0L550-95Q550-110 540-120Q530-130 515-130L365-130Q350-130 340-120Q330-110 330-95L330 0L110 0Q95 0 85 10Q75 20 75 35L75 665Q75 680 85 690Q95 700 110 700L260 700Q275 700 285 690Q295 680 295 665L295 170L585 170L585 665Q585 680 595 690Q605 700 620 700L770 700Q785 700 795 690Q805 680 805 665Z"  horiz-adv-x="880" vert-adv-y="1000"  />

      
      <glyph glyph-name="uni0410" unicode="&#x0410;" d="M618 35L583 125L268 125L233 35Q219 0 188 0L28 0Q12 0 4 10Q-4 20 3 35L283 665Q299 700 328 700L533 700Q563 700 578 666L858 35Q865 20 857 10Q849 0 833 0L663 0Q632 0 618 35M423 490L338 290L513 290L433 490L423 490Z"  horiz-adv-x="861" vert-adv-y="1000"  />

      
      <glyph glyph-name="uni0411" unicode="&#x0411;" d="M725.50 387Q725.50 387 765.25 355.50Q805 324 805 225Q805 126 725.50 63Q646 0 495 0L110 0Q95 0 85 10Q75 20 75 35L75 665Q75 680 85 690Q95 700 110 700L710 700Q725 700 735 690Q745 680 745 665L745 565Q745 550 735 540Q725 530 710 530L295 530L295 450L495 450Q646 450 725.50 387M495 290L295 290L295 160L495 160Q531 160 553 179Q575 198 575 225Q575 252 553 271Q531 290 495 290Z"  horiz-adv-x="835" vert-adv-y="1000"  />

      
      <glyph glyph-name="uni0412" unicode="&#x0412;" d="M765 505Q765 461 740 428.50Q715 396 690 386L665 375L665 365Q671 364 681 361Q691 358 717 346Q743 334 763 317.50Q783 301 799 271Q815 241 815 205Q815 117 737.50 58.50Q660 0 510 0L110 0Q95 0 85 10Q75 20 75 35L75 665Q75 680 85 690Q95 700 110 700L470 700Q616 700 690.50 645Q765 590 765 505M510 280L295 280L295 160L510 160Q546 160 565.50 176.50Q585 193 585 220Q585 247 565.50 263.50Q546 280 510 280M470 540L295 540L295 440L470 440Q535 440 535 490Q535 540 470 540Z"  horiz-adv-x="850" vert-adv-y="1000"  />

      
      <glyph glyph-name="uni0413" unicode="&#x0413;" d="M705 665L705 565Q705 550 695 540Q685 530 670 530L295 530L295 35Q295 20 285 10Q275 0 260 0L110 0Q95 0 85 10Q75 20 75 35L75 665Q75 680 85 690Q95 700 110 700L670 700Q685 700 695 690Q705 680 705 665Z"  horiz-adv-x="715" vert-adv-y="1000"  />

      
      <glyph glyph-name="uni0414" unicode="&#x0414;" d="M820 170L885 170Q900 170 910 160Q920 150 920 135L920 35Q920 20 910 10Q900 0 885 0L35 0Q20 0 10 10Q0 20 0 35L0 135Q0 150 10 160Q20 170 35 170L90 170L155 440Q218 700 495 700L785 700Q800 700 810 690Q820 680 820 665L820 170M600 170L600 530L495 530Q401 530 380 440L315 170L600 170Z"  horiz-adv-x="935" vert-adv-y="1000"  />

      
      <glyph glyph-name="uni0415" unicode="&#x0415;" d="M755 665L755 565Q755 550 745 540Q735 530 720 530L295 530L295 440L610 440Q625 440 635 430Q645 420 645 405L645 305Q645 290 635 280Q625 270 610 270L295 270L295 170L720 170Q735 170 745 160Q755 150 755 135L755 35Q755 20 745 10Q735 0 720 0L110 0Q95 0 85 10Q75 20 75 35L75 665Q75 680 85 690Q95 700 110 700L720 700Q735 700 745 690Q755 680 755 665Z"  horiz-adv-x="790" vert-adv-y="1000"  />

      
      <glyph glyph-name="uni0416" unicode="&#x0416;" d="M253 360L253 370Q246 372 233.50 378Q221 384 189 415Q157 446 133 490L38 665Q32 677 38.50 688.50Q45 700 63 700L218 700Q264 700 283 665L378 490Q392 465 411 452.50Q430 440 468 440L503 440L503 665Q503 680 513 690Q523 700 538 700L688 700Q703 700 713 690Q723 680 723 665L723 440L758 440Q796 440 815 452.50Q834 465 848 490L943 665Q962 700 1008 700L1163 700Q1181 700 1187.50 688.50Q1194 677 1188 665L1093 490Q1069 446 1039 416Q1009 386 991 378L973 370L973 360Q976 359 981 357Q986 355 1001.50 345Q1017 335 1032.50 321Q1048 307 1069 280.50Q1090 254 1108 220L1208 35Q1214 23 1207.50 11.50Q1201 0 1183 0L1028 0Q982 0 963 35L863 220Q849 245 830 257.50Q811 270 773 270L723 270L723 35Q723 20 713 10Q703 0 688 0L538 0Q523 0 513 10Q503 20 503 35L503 270L453 270Q415 270 396 257.50Q377 245 363 220L263 35Q244 0 198 0L43 0Q25 0 18.50 11.50Q12 23 18 35L118 220Q147 273 180.50 308Q214 343 234 352L253 360Z"  horiz-adv-x="1226" vert-adv-y="1000"  />

      
      <glyph glyph-name="uni0417" unicode="&#x0417;" d="M669 42Q669 42 623.50 11Q578-20 395-20Q212-20 118.50 44.50Q25 109 25 200Q25 240 65 240L190 240Q226 240 250 200Q283 145 395 145Q464 145 497 164.50Q530 184 530 210Q530 237 508 256Q486 275 450 275L320 275Q305 275 295 285Q285 295 285 310L285 410Q285 425 295 435Q305 445 320 445L440 445Q473 445 491.50 461Q510 477 510 500Q510 522 481.50 538.50Q453 555 395 555Q305 555 275 510Q262 489 249 479.50Q236 470 215 470L90 470Q50 470 50 510Q50 593 140 656.50Q230 720 395 720Q567 720 653.50 661Q740 602 740 515Q740 484 727 458.50Q714 433 696 418Q678 403 659.50 392.50Q641 382 628 378L615 375L615 365Q621 364 630.50 361Q640 358 665 345.50Q690 333 709.50 315.50Q729 298 744.50 266Q760 234 760 195Q760 104 669 42Z"  horiz-adv-x="805" vert-adv-y="1000"  />

      
      <glyph glyph-name="uni0418" unicode="&#x0418;" d="M595 400L585 400L335 35Q312 0 280 0L110 0Q95 0 85 10Q75 20 75 35L75 665Q75 680 85 690Q95 700 110 700L260 700Q275 700 285 690Q295 680 295 665L295 300L305 300L555 665Q578 700 610 700L780 700Q795 700 805 690Q815 680 815 665L815 35Q815 20 805 10Q795 0 780 0L630 0Q615 0 605 10Q595 20 595 35L595 400Z"  horiz-adv-x="890" vert-adv-y="1000"  />

      
      <glyph glyph-name="uni0419" unicode="&#x0419;" d="M392 901Q392 901 401 893Q410 885 435 885Q460 885 478 901Q496 917 500 940Q504 960 525 960L620 960Q628 960 634 954Q640 948 640 940Q640 860 585.50 810Q531 760 435 760Q339 760 284.50 810Q230 860 230 940Q230 948 236 954Q242 960 250 960L345 960Q366 960 370 940Q374 917 392 901M595 400L585 400L335 35Q312 0 280 0L110 0Q95 0 85 10Q75 20 75 35L75 665Q75 680 85 690Q95 700 110 700L260 700Q275 700 285 690Q295 680 295 665L295 300L305 300L555 665Q578 700 610 700L780 700Q795 700 805 690Q815 680 815 665L815 35Q815 20 805 10Q795 0 780 0L630 0Q615 0 605 10Q595 20 595 35L595 400Z"  horiz-adv-x="890" vert-adv-y="1000"  />

      
      <glyph glyph-name="uni041A" unicode="&#x041A;" d="M585 370L585 360Q588 359 593 357Q598 355 613.50 345Q629 335 644.50 321Q660 307 681 280.50Q702 254 720 220L820 35Q826 23 819.50 11.50Q813 0 795 0L640 0Q594 0 575 35L475 220Q461 245 442 257.50Q423 270 385 270L295 270L295 35Q295 20 285 10Q275 0 260 0L110 0Q95 0 85 10Q75 20 75 35L75 665Q75 680 85 690Q95 700 110 700L260 700Q275 700 285 690Q295 680 295 665L295 440L370 440Q408 440 427 452.50Q446 465 460 490L555 665Q574 700 620 700L775 700Q793 700 799.50 688.50Q806 677 800 665L705 490Q681 446 651 416Q621 386 603 378L585 370Z"  horiz-adv-x="838" vert-adv-y="1000"  />

      
      <glyph glyph-name="uni041B" unicode="&#x041B;" d="M801 665L801 35Q801 20 791 10Q781 0 766 0L616 0Q601 0 591 10Q581 20 581 35L581 530L461 530Q369 530 346 440L246 35Q237 0 207 0L56 0Q37 0 27 10.50Q17 21 21 35L121 440Q186 700 461 700L766 700Q781 700 791 690Q801 680 801 665Z"  horiz-adv-x="876" vert-adv-y="1000"  />

      
      <glyph glyph-name="uni041C" unicode="&#x041C;" d="M616 0L495 0Q474 0 459.50 11Q445 22 440 35L305 365L295 365L295 35Q295 20 285 10Q275 0 260 0L110 0Q95 0 85 10Q75 20 75 35L75 665Q75 680 85 690Q95 700 110 700L320 700Q341 700 355.50 689Q370 678 375 665L550 240L560 240L735 665Q740 678 754.50 689Q769 700 790 700L1000 700Q1015 700 1025 690Q1035 680 1035 665L1035 35Q1035 20 1025 10Q1015 0 1000 0L850 0Q835 0 825 10Q815 20 815 35L815 365L805 365L671 35Q666 22 651.50 11Q637 0 616 0Z"  horiz-adv-x="1110" vert-adv-y="1000"  />

      
      <glyph glyph-name="uni041D" unicode="&#x041D;" d="M805 665L805 35Q805 20 795 10Q785 0 770 0L620 0Q605 0 595 10Q585 20 585 35L585 260L295 260L295 35Q295 20 285 10Q275 0 260 0L110 0Q95 0 85 10Q75 20 75 35L75 665Q75 680 85 690Q95 700 110 700L260 700Q275 700 285 690Q295 680 295 665L295 430L585 430L585 665Q585 680 595 690Q605 700 620 700L770 700Q785 700 795 690Q805 680 805 665Z"  horiz-adv-x="880" vert-adv-y="1000"  />

      
      <glyph glyph-name="uni041E" unicode="&#x041E;" d="M323 197.50Q323 197.50 347 171.25Q371 145 455 145Q539 145 587 197.50Q635 250 635 350Q635 450 587 502.50Q539 555 455 555Q371 555 323 502.50Q275 450 275 350Q275 250 323 197.50M152 620.50Q152 620.50 205.50 670.25Q259 720 455 720Q651 720 758 620.50Q865 521 865 350Q865 179 758 79.50Q651-20 455-20Q259-20 152 79.50Q45 179 45 350Q45 521 152 620.50Z"  horiz-adv-x="910" vert-adv-y="1000"  />

      
      <glyph glyph-name="uni041F" unicode="&#x041F;" d="M805 665L805 35Q805 20 795 10Q785 0 770 0L620 0Q605 0 595 10Q585 20 585 35L585 530L295 530L295 35Q295 20 285 10Q275 0 260 0L110 0Q95 0 85 10Q75 20 75 35L75 665Q75 680 85 690Q95 700 110 700L770 700Q785 700 795 690Q805 680 805 665Z"  horiz-adv-x="880" vert-adv-y="1000"  />

      
      <glyph glyph-name="uni0420" unicode="&#x0420;" d="M717 629.50Q717 629.50 761 594.25Q805 559 805 445Q805 331 717 260.50Q629 190 460 190L295 190L295 35Q295 20 285 10Q275 0 260 0L110 0Q95 0 85 10Q75 20 75 35L75 665Q75 680 85 690Q95 700 110 700L460 700Q629 700 717 629.50M295 350L460 350Q515 350 545 376Q575 402 575 445Q575 488 545 514Q515 540 460 540L295 540L295 350Z"  horiz-adv-x="830" vert-adv-y="1000"  />

      
      <glyph glyph-name="uni0421" unicode="&#x0421;" d="M455 720Q621 720 718 647Q815 574 815 480Q815 440 775 440L650 440Q614 440 590 480Q543 555 455 555Q371 555 323 502.50Q275 450 275 350Q275 250 323 197.50Q371 145 455 145Q553 145 600 230Q622 270 660 270L785 270Q825 270 825 230Q825 132 725 56Q625-20 455-20Q259-20 152 79.50Q45 179 45 350Q45 521 152 620.50Q259 720 455 720Z"  horiz-adv-x="860" vert-adv-y="1000"  />

      
      <glyph glyph-name="uni0422" unicode="&#x0422;" d="M725 665L725 565Q725 550 715 540Q705 530 690 530L480 530L480 35Q480 20 470 10Q460 0 445 0L295 0Q280 0 270 10Q260 20 260 35L260 530L50 530Q35 530 25 540Q15 550 15 565L15 665Q15 680 25 690Q35 700 50 700L690 700Q705 700 715 690Q725 680 725 665Z"  horiz-adv-x="740" vert-adv-y="1000"  />

      
      <glyph glyph-name="uni0423" unicode="&#x0423;" d="M478 400L578 665Q590 700 628 700L773 700Q792 700 800 690Q808 680 803 665L638 220Q598 113 527 56.50Q456 0 338 0L213 0Q198 0 188 10Q178 20 178 35L178 145Q178 160 188 170Q198 180 213 180L258 180Q268 180 293 175Q318 170 328 170L338 170Q366 170 386 185Q406 200 413 220L418 235L393 235Q274 235 205 290Q136 345 88 460L3 665Q-3 680 5.50 690Q14 700 33 700L183 700Q219 700 233 665L318 460Q344 400 398 400L478 400Z"  horiz-adv-x="815" vert-adv-y="1000"  />

      
      <glyph glyph-name="uni0424" unicode="&#x0424;" d="M450 730L600 730Q615 730 625 720Q635 710 635 695L635 655Q820 655 920 570.50Q1020 486 1020 350Q1020 214 920 129.50Q820 45 635 45L635 5Q635-10 625-20Q615-30 600-30L450-30Q435-30 425-20Q415-10 415 5L415 45Q230 45 130 129.50Q30 214 30 350Q30 486 130 570.50Q230 655 415 655L415 695Q415 710 425 720Q435 730 450 730M415 205L415 495Q344 495 302 454.50Q260 414 260 350Q260 286 302 245.50Q344 205 415 205M635 495L635 205Q706 205 748 245.50Q790 286 790 350Q790 414 748 454.50Q706 495 635 495Z"  horiz-adv-x="1050" vert-adv-y="1000"  />

      
      <glyph glyph-name="uni0425" unicode="&#x0425;" d="M405 210L395 210L270 35Q247 0 210 0L35 0Q17 0 9 12Q1 24 10 35L250 360L30 665Q21 676 29 688Q37 700 55 700L225 700Q262 700 285 665L395 500L405 500L515 665Q538 700 575 700L745 700Q763 700 771 688Q779 676 770 665L550 360L790 35Q799 24 791 12Q783 0 765 0L590 0Q553 0 530 35L405 210Z"  horiz-adv-x="800" vert-adv-y="1000"  />

      
      <glyph glyph-name="uni0426" unicode="&#x0426;" d="M895 135L895 35Q895 20 885 10Q875 0 860 0L110 0Q95 0 85 10Q75 20 75 35L75 665Q75 680 85 690Q95 700 110 700L260 700Q275 700 285 690Q295 680 295 665L295 170L575 170L575 665Q575 680 585 690Q595 700 610 700L760 700Q775 700 785 690Q795 680 795 665L795 170L860 170Q875 170 885 160Q895 150 895 135Z"  horiz-adv-x="910" vert-adv-y="1000"  />

      
      <glyph glyph-name="uni0427" unicode="&#x0427;" d="M275 665L275 480Q275 433 307.50 406.50Q340 380 405 380Q432 380 467 385Q502 390 524 395L545 400L545 665Q545 680 555 690Q565 700 580 700L730 700Q745 700 755 690Q765 680 765 665L765 35Q765 20 755 10Q745 0 730 0L580 0Q565 0 555 10Q545 20 545 35L545 230Q455 210 375 210Q221 210 138 283.50Q55 357 55 480L55 665Q55 680 65 690Q75 700 90 700L240 700Q255 700 265 690Q275 680 275 665Z"  horiz-adv-x="840" vert-adv-y="1000"  />

      
      <glyph glyph-name="uni0428" unicode="&#x0428;" d="M1135 665L1135 35Q1135 20 1125 10Q1115 0 1100 0L110 0Q95 0 85 10Q75 20 75 35L75 665Q75 680 85 690Q95 700 110 700L260 700Q275 700 285 690Q295 680 295 665L295 170L495 170L495 665Q495 680 505 690Q515 700 530 700L680 700Q695 700 705 690Q715 680 715 665L715 170L915 170L915 665Q915 680 925 690Q935 700 950 700L1100 700Q1115 700 1125 690Q1135 680 1135 665Z"  horiz-adv-x="1210" vert-adv-y="1000"  />

      
      <glyph glyph-name="uni0429" unicode="&#x0429;" d="M1135 665L1135 170L1200 170Q1215 170 1225 160Q1235 150 1235 135L1235 35Q1235 20 1225 10Q1215 0 1200 0L110 0Q95 0 85 10Q75 20 75 35L75 665Q75 680 85 690Q95 700 110 700L260 700Q275 700 285 690Q295 680 295 665L295 170L495 170L495 665Q495 680 505 690Q515 700 530 700L680 700Q695 700 705 690Q715 680 715 665L715 170L915 170L915 665Q915 680 925 690Q935 700 950 700L1100 700Q1115 700 1125 690Q1135 680 1135 665Z"  horiz-adv-x="1250" vert-adv-y="1000"  />

      
      <glyph glyph-name="uni042A" unicode="&#x042A;" d="M805.50 422.50Q805.50 422.50 847.75 388.75Q890 355 890 245Q890 135 805.50 67.50Q721 0 555 0L215 0Q200 0 190 10Q180 20 180 35L180 530L35 530Q20 530 10 540Q0 550 0 565L0 665Q0 680 10 690Q20 700 35 700L365 700Q380 700 390 690Q400 680 400 665L400 490L555 490Q721 490 805.50 422.50M633 183Q633 183 646.50 194.50Q660 206 660 245Q660 284 633 307Q606 330 555 330L400 330L400 160L555 160Q606 160 633 183Z"  horiz-adv-x="910" vert-adv-y="1000"  />

      
      <glyph glyph-name="uni042B" unicode="&#x042B;" d="M1085 665L1085 35Q1085 20 1075 10Q1065 0 1050 0L900 0Q885 0 875 10Q865 20 865 35L865 665Q865 680 875 690Q885 700 900 700L1050 700Q1065 700 1075 690Q1085 680 1085 665M690.50 422.50Q690.50 422.50 732.75 388.75Q775 355 775 245Q775 135 690.50 67.50Q606 0 440 0L110 0Q95 0 85 10Q75 20 75 35L75 665Q75 680 85 690Q95 700 110 700L260 700Q275 700 285 690Q295 680 295 665L295 490L440 490Q606 490 690.50 422.50M518 183Q518 183 531.50 194.50Q545 206 545 245Q545 284 518 307Q491 330 440 330L295 330L295 160L440 160Q491 160 518 183Z"  horiz-adv-x="1160" vert-adv-y="1000"  />

      
      <glyph glyph-name="uni042C" unicode="&#x042C;" d="M710.50 422.50Q710.50 422.50 752.75 388.75Q795 355 795 245Q795 135 710.50 67.50Q626 0 460 0L110 0Q95 0 85 10Q75 20 75 35L75 665Q75 680 85 690Q95 700 110 700L260 700Q275 700 285 690Q295 680 295 665L295 490L460 490Q626 490 710.50 422.50M538 183Q538 183 551.50 194.50Q565 206 565 245Q565 284 538 307Q511 330 460 330L295 330L295 160L460 160Q511 160 538 183Z"  horiz-adv-x="815" vert-adv-y="1000"  />

      
      <glyph glyph-name="uni042D" unicode="&#x042D;" d="M405 720Q601 720 708 620.50Q815 521 815 350Q815 179 708 79.50Q601-20 405-20Q235-20 135 56Q35 132 35 230Q35 270 75 270L200 270Q238 270 260 230Q307 145 405 145Q473 145 516 179.50Q559 214 575 270L335 270Q320 270 310 280Q300 290 300 305L300 395Q300 410 310 420Q320 430 335 430L575 430Q533 555 405 555Q317 555 270 480Q246 440 210 440L85 440Q45 440 45 480Q45 574 142 647Q239 720 405 720Z"  horiz-adv-x="860" vert-adv-y="1000"  />

      
      <glyph glyph-name="uni042E" unicode="&#x042E;" d="M1044.50 621.50Q1044.50 621.50 1094.75 572.25Q1145 523 1145 350Q1145 177 1044.50 78.50Q944-20 765-20Q603-20 511 55Q419 130 395 260L295 260L295 35Q295 20 285 10Q275 0 260 0L110 0Q95 0 85 10Q75 20 75 35L75 665Q75 680 85 690Q95 700 110 700L260 700Q275 700 285 690Q295 680 295 665L295 430L395 430Q418 567 510 643.50Q602 720 765 720Q944 720 1044.50 621.50M873.50 197Q873.50 197 894.25 223Q915 249 915 350Q915 451 873.50 503Q832 555 765 555Q698 555 656.50 503Q615 451 615 350Q615 249 656.50 197Q698 145 765 145Q832 145 873.50 197Z"  horiz-adv-x="1190" vert-adv-y="1000"  />

      
      <glyph glyph-name="uni042F" unicode="&#x042F;" d="M205 280Q199 281 189.50 284Q180 287 155 300.50Q130 314 110.50 332Q91 350 75.50 384Q60 418 60 460Q60 567 144 633.50Q228 700 390 700L745 700Q760 700 770 690Q780 680 780 665L780 35Q780 20 770 10Q760 0 745 0L595 0Q580 0 570 10Q560 20 560 35L560 220L425 220L285 35Q259 0 220 0L50 0Q32 0 24 12Q16 24 25 35L205 270L205 280M390 380L560 380L560 540L390 540Q343 540 316.50 517.50Q290 495 290 460Q290 425 316.50 402.50Q343 380 390 380Z"  horiz-adv-x="855" vert-adv-y="1000"  />

      
      <glyph glyph-name="uni0430" unicode="&#x0430;" d="M618 35L583 125L268 125L233 35Q219 0 188 0L28 0Q12 0 4 10Q-4 20 3 35L283 665Q299 700 328 700L533 700Q563 700 578 666L858 35Q865 20 857 10Q849 0 833 0L663 0Q632 0 618 35M423 490L338 290L513 290L433 490L423 490Z"  horiz-adv-x="861" vert-adv-y="1000"  />

      
      <glyph glyph-name="uni0431" unicode="&#x0431;" d="M725.50 387Q725.50 387 765.25 355.50Q805 324 805 225Q805 126 725.50 63Q646 0 495 0L110 0Q95 0 85 10Q75 20 75 35L75 665Q75 680 85 690Q95 700 110 700L710 700Q725 700 735 690Q745 680 745 665L745 565Q745 550 735 540Q725 530 710 530L295 530L295 450L495 450Q646 450 725.50 387M495 290L295 290L295 160L495 160Q531 160 553 179Q575 198 575 225Q575 252 553 271Q531 290 495 290Z"  horiz-adv-x="835" vert-adv-y="1000"  />

      
      <glyph glyph-name="uni0432" unicode="&#x0432;" d="M765 505Q765 461 740 428.50Q715 396 690 386L665 375L665 365Q671 364 681 361Q691 358 717 346Q743 334 763 317.50Q783 301 799 271Q815 241 815 205Q815 117 737.50 58.50Q660 0 510 0L110 0Q95 0 85 10Q75 20 75 35L75 665Q75 680 85 690Q95 700 110 700L470 700Q616 700 690.50 645Q765 590 765 505M510 280L295 280L295 160L510 160Q546 160 565.50 176.50Q585 193 585 220Q585 247 565.50 263.50Q546 280 510 280M470 540L295 540L295 440L470 440Q535 440 535 490Q535 540 470 540Z"  horiz-adv-x="850" vert-adv-y="1000"  />

      
      <glyph glyph-name="uni0433" unicode="&#x0433;" d="M705 665L705 565Q705 550 695 540Q685 530 670 530L295 530L295 35Q295 20 285 10Q275 0 260 0L110 0Q95 0 85 10Q75 20 75 35L75 665Q75 680 85 690Q95 700 110 700L670 700Q685 700 695 690Q705 680 705 665Z"  horiz-adv-x="715" vert-adv-y="1000"  />

      
      <glyph glyph-name="uni0434" unicode="&#x0434;" d="M820 170L885 170Q900 170 910 160Q920 150 920 135L920 35Q920 20 910 10Q900 0 885 0L35 0Q20 0 10 10Q0 20 0 35L0 135Q0 150 10 160Q20 170 35 170L90 170L155 440Q218 700 495 700L785 700Q800 700 810 690Q820 680 820 665L820 170M600 170L600 530L495 530Q401 530 380 440L315 170L600 170Z"  horiz-adv-x="935" vert-adv-y="1000"  />

      
      <glyph glyph-name="uni0435" unicode="&#x0435;" d="M755 665L755 565Q755 550 745 540Q735 530 720 530L295 530L295 440L610 440Q625 440 635 430Q645 420 645 405L645 305Q645 290 635 280Q625 270 610 270L295 270L295 170L720 170Q735 170 745 160Q755 150 755 135L755 35Q755 20 745 10Q735 0 720 0L110 0Q95 0 85 10Q75 20 75 35L75 665Q75 680 85 690Q95 700 110 700L720 700Q735 700 745 690Q755 680 755 665Z"  horiz-adv-x="790" vert-adv-y="1000"  />

      
      <glyph glyph-name="uni0436" unicode="&#x0436;" d="M253 360L253 370Q246 372 233.50 378Q221 384 189 415Q157 446 133 490L38 665Q32 677 38.50 688.50Q45 700 63 700L218 700Q264 700 283 665L378 490Q392 465 411 452.50Q430 440 468 440L503 440L503 665Q503 680 513 690Q523 700 538 700L688 700Q703 700 713 690Q723 680 723 665L723 440L758 440Q796 440 815 452.50Q834 465 848 490L943 665Q962 700 1008 700L1163 700Q1181 700 1187.50 688.50Q1194 677 1188 665L1093 490Q1069 446 1039 416Q1009 386 991 378L973 370L973 360Q976 359 981 357Q986 355 1001.50 345Q1017 335 1032.50 321Q1048 307 1069 280.50Q1090 254 1108 220L1208 35Q1214 23 1207.50 11.50Q1201 0 1183 0L1028 0Q982 0 963 35L863 220Q849 245 830 257.50Q811 270 773 270L723 270L723 35Q723 20 713 10Q703 0 688 0L538 0Q523 0 513 10Q503 20 503 35L503 270L453 270Q415 270 396 257.50Q377 245 363 220L263 35Q244 0 198 0L43 0Q25 0 18.50 11.50Q12 23 18 35L118 220Q147 273 180.50 308Q214 343 234 352L253 360Z"  horiz-adv-x="1226" vert-adv-y="1000"  />

      
      <glyph glyph-name="uni0437" unicode="&#x0437;" d="M669 42Q669 42 623.50 11Q578-20 395-20Q212-20 118.50 44.50Q25 109 25 200Q25 240 65 240L190 240Q226 240 250 200Q283 145 395 145Q464 145 497 164.50Q530 184 530 210Q530 237 508 256Q486 275 450 275L320 275Q305 275 295 285Q285 295 285 310L285 410Q285 425 295 435Q305 445 320 445L440 445Q473 445 491.50 461Q510 477 510 500Q510 522 481.50 538.50Q453 555 395 555Q305 555 275 510Q262 489 249 479.50Q236 470 215 470L90 470Q50 470 50 510Q50 593 140 656.50Q230 720 395 720Q567 720 653.50 661Q740 602 740 515Q740 484 727 458.50Q714 433 696 418Q678 403 659.50 392.50Q641 382 628 378L615 375L615 365Q621 364 630.50 361Q640 358 665 345.50Q690 333 709.50 315.50Q729 298 744.50 266Q760 234 760 195Q760 104 669 42Z"  horiz-adv-x="805" vert-adv-y="1000"  />

      
      <glyph glyph-name="uni0438" unicode="&#x0438;" d="M595 400L585 400L335 35Q312 0 280 0L110 0Q95 0 85 10Q75 20 75 35L75 665Q75 680 85 690Q95 700 110 700L260 700Q275 700 285 690Q295 680 295 665L295 300L305 300L555 665Q578 700 610 700L780 700Q795 700 805 690Q815 680 815 665L815 35Q815 20 805 10Q795 0 780 0L630 0Q615 0 605 10Q595 20 595 35L595 400Z"  horiz-adv-x="890" vert-adv-y="1000"  />

      
      <glyph glyph-name="uni0439" unicode="&#x0439;" d="M392 901Q392 901 401 893Q410 885 435 885Q460 885 478 901Q496 917 500 940Q504 960 525 960L620 960Q628 960 634 954Q640 948 640 940Q640 860 585.50 810Q531 760 435 760Q339 760 284.50 810Q230 860 230 940Q230 948 236 954Q242 960 250 960L345 960Q366 960 370 940Q374 917 392 901M595 400L585 400L335 35Q312 0 280 0L110 0Q95 0 85 10Q75 20 75 35L75 665Q75 680 85 690Q95 700 110 700L260 700Q275 700 285 690Q295 680 295 665L295 300L305 300L555 665Q578 700 610 700L780 700Q795 700 805 690Q815 680 815 665L815 35Q815 20 805 10Q795 0 780 0L630 0Q615 0 605 10Q595 20 595 35L595 400Z"  horiz-adv-x="890" vert-adv-y="1000"  />

      
      <glyph glyph-name="uni043A" unicode="&#x043A;" d="M585 370L585 360Q588 359 593 357Q598 355 613.50 345Q629 335 644.50 321Q660 307 681 280.50Q702 254 720 220L820 35Q826 23 819.50 11.50Q813 0 795 0L640 0Q594 0 575 35L475 220Q461 245 442 257.50Q423 270 385 270L295 270L295 35Q295 20 285 10Q275 0 260 0L110 0Q95 0 85 10Q75 20 75 35L75 665Q75 680 85 690Q95 700 110 700L260 700Q275 700 285 690Q295 680 295 665L295 440L370 440Q408 440 427 452.50Q446 465 460 490L555 665Q574 700 620 700L775 700Q793 700 799.50 688.50Q806 677 800 665L705 490Q681 446 651 416Q621 386 603 378L585 370Z"  horiz-adv-x="838" vert-adv-y="1000"  />

      
      <glyph glyph-name="uni043B" unicode="&#x043B;" d="M801 665L801 35Q801 20 791 10Q781 0 766 0L616 0Q601 0 591 10Q581 20 581 35L581 530L461 530Q369 530 346 440L246 35Q237 0 207 0L56 0Q37 0 27 10.50Q17 21 21 35L121 440Q186 700 461 700L766 700Q781 700 791 690Q801 680 801 665Z"  horiz-adv-x="876" vert-adv-y="1000"  />

      
      <glyph glyph-name="uni043C" unicode="&#x043C;" d="M616 0L495 0Q474 0 459.50 11Q445 22 440 35L305 365L295 365L295 35Q295 20 285 10Q275 0 260 0L110 0Q95 0 85 10Q75 20 75 35L75 665Q75 680 85 690Q95 700 110 700L320 700Q341 700 355.50 689Q370 678 375 665L550 240L560 240L735 665Q740 678 754.50 689Q769 700 790 700L1000 700Q1015 700 1025 690Q1035 680 1035 665L1035 35Q1035 20 1025 10Q1015 0 1000 0L850 0Q835 0 825 10Q815 20 815 35L815 365L805 365L671 35Q666 22 651.50 11Q637 0 616 0Z"  horiz-adv-x="1110" vert-adv-y="1000"  />

      
      <glyph glyph-name="uni043D" unicode="&#x043D;" d="M805 665L805 35Q805 20 795 10Q785 0 770 0L620 0Q605 0 595 10Q585 20 585 35L585 260L295 260L295 35Q295 20 285 10Q275 0 260 0L110 0Q95 0 85 10Q75 20 75 35L75 665Q75 680 85 690Q95 700 110 700L260 700Q275 700 285 690Q295 680 295 665L295 430L585 430L585 665Q585 680 595 690Q605 700 620 700L770 700Q785 700 795 690Q805 680 805 665Z"  horiz-adv-x="880" vert-adv-y="1000"  />

      
      <glyph glyph-name="uni043E" unicode="&#x043E;" d="M323 197.50Q323 197.50 347 171.25Q371 145 455 145Q539 145 587 197.50Q635 250 635 350Q635 450 587 502.50Q539 555 455 555Q371 555 323 502.50Q275 450 275 350Q275 250 323 197.50M152 620.50Q152 620.50 205.50 670.25Q259 720 455 720Q651 720 758 620.50Q865 521 865 350Q865 179 758 79.50Q651-20 455-20Q259-20 152 79.50Q45 179 45 350Q45 521 152 620.50Z"  horiz-adv-x="910" vert-adv-y="1000"  />

      
      <glyph glyph-name="uni043F" unicode="&#x043F;" d="M805 665L805 35Q805 20 795 10Q785 0 770 0L620 0Q605 0 595 10Q585 20 585 35L585 530L295 530L295 35Q295 20 285 10Q275 0 260 0L110 0Q95 0 85 10Q75 20 75 35L75 665Q75 680 85 690Q95 700 110 700L770 700Q785 700 795 690Q805 680 805 665Z"  horiz-adv-x="880" vert-adv-y="1000"  />

      
      <glyph glyph-name="uni0440" unicode="&#x0440;" d="M717 629.50Q717 629.50 761 594.25Q805 559 805 445Q805 331 717 260.50Q629 190 460 190L295 190L295 35Q295 20 285 10Q275 0 260 0L110 0Q95 0 85 10Q75 20 75 35L75 665Q75 680 85 690Q95 700 110 700L460 700Q629 700 717 629.50M295 350L460 350Q515 350 545 376Q575 402 575 445Q575 488 545 514Q515 540 460 540L295 540L295 350Z"  horiz-adv-x="830" vert-adv-y="1000"  />

      
      <glyph glyph-name="uni0441" unicode="&#x0441;" d="M455 720Q621 720 718 647Q815 574 815 480Q815 440 775 440L650 440Q614 440 590 480Q543 555 455 555Q371 555 323 502.50Q275 450 275 350Q275 250 323 197.50Q371 145 455 145Q553 145 600 230Q622 270 660 270L785 270Q825 270 825 230Q825 132 725 56Q625-20 455-20Q259-20 152 79.50Q45 179 45 350Q45 521 152 620.50Q259 720 455 720Z"  horiz-adv-x="860" vert-adv-y="1000"  />

      
      <glyph glyph-name="uni0442" unicode="&#x0442;" d="M725 665L725 565Q725 550 715 540Q705 530 690 530L480 530L480 35Q480 20 470 10Q460 0 445 0L295 0Q280 0 270 10Q260 20 260 35L260 530L50 530Q35 530 25 540Q15 550 15 565L15 665Q15 680 25 690Q35 700 50 700L690 700Q705 700 715 690Q725 680 725 665Z"  horiz-adv-x="740" vert-adv-y="1000"  />

      
      <glyph glyph-name="uni0443" unicode="&#x0443;" d="M478 400L578 665Q590 700 628 700L773 700Q792 700 800 690Q808 680 803 665L638 220Q598 113 527 56.50Q456 0 338 0L213 0Q198 0 188 10Q178 20 178 35L178 145Q178 160 188 170Q198 180 213 180L258 180Q268 180 293 175Q318 170 328 170L338 170Q366 170 386 185Q406 200 413 220L418 235L393 235Q274 235 205 290Q136 345 88 460L3 665Q-3 680 5.50 690Q14 700 33 700L183 700Q219 700 233 665L318 460Q344 400 398 400L478 400Z"  horiz-adv-x="815" vert-adv-y="1000"  />

      
      <glyph glyph-name="uni0444" unicode="&#x0444;" d="M450 730L600 730Q615 730 625 720Q635 710 635 695L635 655Q820 655 920 570.50Q1020 486 1020 350Q1020 214 920 129.50Q820 45 635 45L635 5Q635-10 625-20Q615-30 600-30L450-30Q435-30 425-20Q415-10 415 5L415 45Q230 45 130 129.50Q30 214 30 350Q30 486 130 570.50Q230 655 415 655L415 695Q415 710 425 720Q435 730 450 730M415 205L415 495Q344 495 302 454.50Q260 414 260 350Q260 286 302 245.50Q344 205 415 205M635 495L635 205Q706 205 748 245.50Q790 286 790 350Q790 414 748 454.50Q706 495 635 495Z"  horiz-adv-x="1050" vert-adv-y="1000"  />

      
      <glyph glyph-name="uni0445" unicode="&#x0445;" d="M405 210L395 210L270 35Q247 0 210 0L35 0Q17 0 9 12Q1 24 10 35L250 360L30 665Q21 676 29 688Q37 700 55 700L225 700Q262 700 285 665L395 500L405 500L515 665Q538 700 575 700L745 700Q763 700 771 688Q779 676 770 665L550 360L790 35Q799 24 791 12Q783 0 765 0L590 0Q553 0 530 35L405 210Z"  horiz-adv-x="800" vert-adv-y="1000"  />

      
      <glyph glyph-name="uni0446" unicode="&#x0446;" d="M895 135L895 35Q895 20 885 10Q875 0 860 0L110 0Q95 0 85 10Q75 20 75 35L75 665Q75 680 85 690Q95 700 110 700L260 700Q275 700 285 690Q295 680 295 665L295 170L575 170L575 665Q575 680 585 690Q595 700 610 700L760 700Q775 700 785 690Q795 680 795 665L795 170L860 170Q875 170 885 160Q895 150 895 135Z"  horiz-adv-x="910" vert-adv-y="1000"  />

      
      <glyph glyph-name="uni0447" unicode="&#x0447;" d="M275 665L275 480Q275 433 307.50 406.50Q340 380 405 380Q432 380 467 385Q502 390 524 395L545 400L545 665Q545 680 555 690Q565 700 580 700L730 700Q745 700 755 690Q765 680 765 665L765 35Q765 20 755 10Q745 0 730 0L580 0Q565 0 555 10Q545 20 545 35L545 230Q455 210 375 210Q221 210 138 283.50Q55 357 55 480L55 665Q55 680 65 690Q75 700 90 700L240 700Q255 700 265 690Q275 680 275 665Z"  horiz-adv-x="840" vert-adv-y="1000"  />

      
      <glyph glyph-name="uni0448" unicode="&#x0448;" d="M1135 665L1135 35Q1135 20 1125 10Q1115 0 1100 0L110 0Q95 0 85 10Q75 20 75 35L75 665Q75 680 85 690Q95 700 110 700L260 700Q275 700 285 690Q295 680 295 665L295 170L495 170L495 665Q495 680 505 690Q515 700 530 700L680 700Q695 700 705 690Q715 680 715 665L715 170L915 170L915 665Q915 680 925 690Q935 700 950 700L1100 700Q1115 700 1125 690Q1135 680 1135 665Z"  horiz-adv-x="1210" vert-adv-y="1000"  />

      
      <glyph glyph-name="uni0449" unicode="&#x0449;" d="M1135 665L1135 170L1200 170Q1215 170 1225 160Q1235 150 1235 135L1235 35Q1235 20 1225 10Q1215 0 1200 0L110 0Q95 0 85 10Q75 20 75 35L75 665Q75 680 85 690Q95 700 110 700L260 700Q275 700 285 690Q295 680 295 665L295 170L495 170L495 665Q495 680 505 690Q515 700 530 700L680 700Q695 700 705 690Q715 680 715 665L715 170L915 170L915 665Q915 680 925 690Q935 700 950 700L1100 700Q1115 700 1125 690Q1135 680 1135 665Z"  horiz-adv-x="1250" vert-adv-y="1000"  />

      
      <glyph glyph-name="uni044A" unicode="&#x044A;" d="M805.50 422.50Q805.50 422.50 847.75 388.75Q890 355 890 245Q890 135 805.50 67.50Q721 0 555 0L215 0Q200 0 190 10Q180 20 180 35L180 530L35 530Q20 530 10 540Q0 550 0 565L0 665Q0 680 10 690Q20 700 35 700L365 700Q380 700 390 690Q400 680 400 665L400 490L555 490Q721 490 805.50 422.50M633 183Q633 183 646.50 194.50Q660 206 660 245Q660 284 633 307Q606 330 555 330L400 330L400 160L555 160Q606 160 633 183Z"  horiz-adv-x="910" vert-adv-y="1000"  />

      
      <glyph glyph-name="uni044B" unicode="&#x044B;" d="M1085 665L1085 35Q1085 20 1075 10Q1065 0 1050 0L900 0Q885 0 875 10Q865 20 865 35L865 665Q865 680 875 690Q885 700 900 700L1050 700Q1065 700 1075 690Q1085 680 1085 665M690.50 422.50Q690.50 422.50 732.75 388.75Q775 355 775 245Q775 135 690.50 67.50Q606 0 440 0L110 0Q95 0 85 10Q75 20 75 35L75 665Q75 680 85 690Q95 700 110 700L260 700Q275 700 285 690Q295 680 295 665L295 490L440 490Q606 490 690.50 422.50M518 183Q518 183 531.50 194.50Q545 206 545 245Q545 284 518 307Q491 330 440 330L295 330L295 160L440 160Q491 160 518 183Z"  horiz-adv-x="1160" vert-adv-y="1000"  />

      
      <glyph glyph-name="uni044C" unicode="&#x044C;" d="M710.50 422.50Q710.50 422.50 752.75 388.75Q795 355 795 245Q795 135 710.50 67.50Q626 0 460 0L110 0Q95 0 85 10Q75 20 75 35L75 665Q75 680 85 690Q95 700 110 700L260 700Q275 700 285 690Q295 680 295 665L295 490L460 490Q626 490 710.50 422.50M538 183Q538 183 551.50 194.50Q565 206 565 245Q565 284 538 307Q511 330 460 330L295 330L295 160L460 160Q511 160 538 183Z"  horiz-adv-x="815" vert-adv-y="1000"  />

      
      <glyph glyph-name="uni044D" unicode="&#x044D;" d="M405 720Q601 720 708 620.50Q815 521 815 350Q815 179 708 79.50Q601-20 405-20Q235-20 135 56Q35 132 35 230Q35 270 75 270L200 270Q238 270 260 230Q307 145 405 145Q473 145 516 179.50Q559 214 575 270L335 270Q320 270 310 280Q300 290 300 305L300 395Q300 410 310 420Q320 430 335 430L575 430Q533 555 405 555Q317 555 270 480Q246 440 210 440L85 440Q45 440 45 480Q45 574 142 647Q239 720 405 720Z"  horiz-adv-x="860" vert-adv-y="1000"  />

      
      <glyph glyph-name="uni044E" unicode="&#x044E;" d="M1044.50 621.50Q1044.50 621.50 1094.75 572.25Q1145 523 1145 350Q1145 177 1044.50 78.50Q944-20 765-20Q603-20 511 55Q419 130 395 260L295 260L295 35Q295 20 285 10Q275 0 260 0L110 0Q95 0 85 10Q75 20 75 35L75 665Q75 680 85 690Q95 700 110 700L260 700Q275 700 285 690Q295 680 295 665L295 430L395 430Q418 567 510 643.50Q602 720 765 720Q944 720 1044.50 621.50M873.50 197Q873.50 197 894.25 223Q915 249 915 350Q915 451 873.50 503Q832 555 765 555Q698 555 656.50 503Q615 451 615 350Q615 249 656.50 197Q698 145 765 145Q832 145 873.50 197Z"  horiz-adv-x="1190" vert-adv-y="1000"  />

      
      <glyph glyph-name="uni044F" unicode="&#x044F;" d="M205 280Q199 281 189.50 284Q180 287 155 300.50Q130 314 110.50 332Q91 350 75.50 384Q60 418 60 460Q60 567 144 633.50Q228 700 390 700L745 700Q760 700 770 690Q780 680 780 665L780 35Q780 20 770 10Q760 0 745 0L595 0Q580 0 570 10Q560 20 560 35L560 220L425 220L285 35Q259 0 220 0L50 0Q32 0 24 12Q16 24 25 35L205 270L205 280M390 380L560 380L560 540L390 540Q343 540 316.50 517.50Q290 495 290 460Q290 425 316.50 402.50Q343 380 390 380Z"  horiz-adv-x="855" vert-adv-y="1000"  />

      
      <glyph glyph-name="uni0451" unicode="&#x0451;" d="M190 825L190 895Q190 914 205.50 929.50Q221 945 240 945L330 945Q349 945 364.50 929.50Q380 914 380 895L380 825Q380 806 364.50 790.50Q349 775 330 775L240 775Q221 775 205.50 790.50Q190 806 190 825M450 825L450 895Q450 914 465.50 929.50Q481 945 500 945L590 945Q609 945 624.50 929.50Q640 914 640 895L640 825Q640 806 624.50 790.50Q609 775 590 775L500 775Q481 775 465.50 790.50Q450 806 450 825M755 565L755 665Q755 680 745 690Q735 700 720 700L110 700Q95 700 85 690Q75 680 75 665L75 35Q75 20 85 10Q95 0 110 0L720 0Q735 0 745 10Q755 20 755 35L755 135Q755 150 745 160Q735 170 720 170L295 170L295 270L610 270Q625 270 635 280Q645 290 645 305L645 405Q645 420 635 430Q625 440 610 440L295 440L295 530L720 530Q735 530 745 540Q755 550 755 565Z"  horiz-adv-x="790" vert-adv-y="1000"  />

      
      <glyph glyph-name="uni0452" unicode="&#x0452;" d="M640 215Q640 248 610 269Q580 290 520 290Q493 290 462 285Q431 280 413 275L395 270L395 35Q395 20 385 10Q375 0 360 0L210 0Q195 0 185 10Q175 20 175 35L175 530L35 530Q20 530 10 540Q0 550 0 565L0 665Q0 680 10 690Q20 700 35 700L535 700Q550 700 560 690Q570 680 570 665L570 565Q570 550 560 540Q550 530 535 530L395 530L395 440Q470 460 550 460Q695 460 777.50 390.50Q860 321 860 215Q860 105 793 42.50Q726-20 600-20Q561-20 521-10Q490-3 490 25L490 130Q490 141 499.50 150.50Q509 160 520 160L530 160Q538 160 550 157.50Q562 155 570 155Q603 155 621.50 171.50Q640 188 640 215Z"  horiz-adv-x="885" vert-adv-y="1000"  />

      
      <glyph glyph-name="uni0453" unicode="&#x0453;" d="M705 565L705 665Q705 680 695 690Q685 700 670 700L110 700Q95 700 85 690Q75 680 75 665L75 35Q75 20 85 10Q95 0 110 0L260 0Q275 0 285 10Q295 20 295 35L295 530L670 530Q685 530 695 540Q705 550 705 565M425 780L345 780Q313 780 325 810L385 960Q397 990 425 990L550 990Q565 990 571.50 980.50Q578 971 570 960L470 810Q449 780 425 780Z"  horiz-adv-x="715" vert-adv-y="1000"  />

      
      <glyph glyph-name="uni0454" unicode="&#x0454;" d="M455 720Q621 720 718 647Q815 574 815 480Q815 440 775 440L650 440Q614 440 590 480Q543 555 455 555Q327 555 285 430L525 430Q540 430 550 420Q560 410 560 395L560 305Q560 290 550 280Q540 270 525 270L285 270Q301 214 344 179.50Q387 145 455 145Q553 145 600 230Q622 270 660 270L785 270Q825 270 825 230Q825 132 725 56Q625-20 455-20Q259-20 152 79.50Q45 179 45 350Q45 521 152 620.50Q259 720 455 720Z"  horiz-adv-x="860" vert-adv-y="1000"  />

      
      <glyph glyph-name="uni0455" unicode="&#x0455;" d="M280 495Q280 468 330 454.50Q380 441 451 431Q522 421 593.50 403Q665 385 715 336.50Q765 288 765 210Q765 112 672.50 46Q580-20 400-20Q218-20 124 44.50Q30 109 30 200Q30 240 70 240L195 240Q232 240 255 200Q288 145 400 145Q469 145 502 164.50Q535 184 535 210Q535 237 485 250.50Q435 264 364 274Q293 284 221.50 302Q150 320 100 368.50Q50 417 50 495Q50 592 138 656Q226 720 400 720Q561 720 650.50 656.50Q740 593 740 510Q740 470 700 470L575 470Q537 470 515 510Q488 555 400 555Q338 555 309 537.50Q280 520 280 495Z"  horiz-adv-x="795" vert-adv-y="1000"  />

      
      <glyph glyph-name="uni0456" unicode="&#x0456;" d="M515 665L515 565Q515 550 505 540Q495 530 480 530L385 530L385 170L480 170Q495 170 505 160Q515 150 515 135L515 35Q515 20 505 10Q495 0 480 0L70 0Q55 0 45 10Q35 20 35 35L35 135Q35 150 45 160Q55 170 70 170L165 170L165 530L70 530Q55 530 45 540Q35 550 35 565L35 665Q35 680 45 690Q55 700 70 700L480 700Q495 700 505 690Q515 680 515 665Z"  horiz-adv-x="550" vert-adv-y="1000"  />

      
      <glyph glyph-name="uni0457" unicode="&#x0457;" d="M515 565L515 665Q515 680 505 690Q495 700 480 700L70 700Q55 700 45 690Q35 680 35 665L35 565Q35 550 45 540Q55 530 70 530L165 530L165 170L70 170Q55 170 45 160Q35 150 35 135L35 35Q35 20 45 10Q55 0 70 0L480 0Q495 0 505 10Q515 20 515 35L515 135Q515 150 505 160Q495 170 480 170L385 170L385 530L480 530Q495 530 505 540Q515 550 515 565M50 830L50 900Q50 919 65.50 934.50Q81 950 100 950L190 950Q209 950 224.50 934.50Q240 919 240 900L240 830Q240 811 224.50 795.50Q209 780 190 780L100 780Q81 780 65.50 795.50Q50 811 50 830M310 830L310 900Q310 919 325.50 934.50Q341 950 360 950L450 950Q469 950 484.50 934.50Q500 919 500 900L500 830Q500 811 484.50 795.50Q469 780 450 780L360 780Q341 780 325.50 795.50Q310 811 310 830Z"  horiz-adv-x="550" vert-adv-y="1000"  />

      
      <glyph glyph-name="uni0458" unicode="&#x0458;" d="M180 160L190 160Q242 160 271 189Q300 218 300 270L300 665Q300 680 310 690Q320 700 335 700L485 700Q500 700 510 690Q520 680 520 665L520 266Q520-10 190-10L55-10Q40-10 30 0Q20 10 20 25L20 135Q20 150 30 160Q40 170 55 170L110 170Q120 170 145 165Q170 160 180 160Z"  horiz-adv-x="590" vert-adv-y="1000"  />

      
      <glyph glyph-name="uni0459" unicode="&#x0459;" d="M791 665L791 490L946 490Q1112 490 1196.50 422.50Q1281 355 1281 245Q1281 135 1196.50 67.50Q1112 0 946 0L606 0Q591 0 581 10Q571 20 571 35L571 530L461 530Q369 530 346 440L246 35Q237 0 207 0L56 0Q37 0 27 10.50Q17 21 21 35L121 440Q186 700 461 700L756 700Q771 700 781 690Q791 680 791 665M1024 183Q1024 183 1037.50 194.50Q1051 206 1051 245Q1051 284 1024 307Q997 330 946 330L791 330L791 160L946 160Q997 160 1024 183Z"  horiz-adv-x="1301" vert-adv-y="1000"  />

      
      <glyph glyph-name="uni045A" unicode="&#x045A;" d="M795 665L795 460L965 460Q1123 460 1204 396.50Q1285 333 1285 230Q1285 127 1204 63.50Q1123 0 965 0L610 0Q595 0 585 10Q575 20 575 35L575 290L295 290L295 35Q295 20 285 10Q275 0 260 0L110 0Q95 0 85 10Q75 20 75 35L75 665Q75 680 85 690Q95 700 110 700L260 700Q275 700 285 690Q295 680 295 665L295 460L575 460L575 665Q575 680 585 690Q595 700 610 700L760 700Q775 700 785 690Q795 680 795 665M1031.50 179.50Q1031.50 179.50 1043.25 189.25Q1055 199 1055 230Q1055 261 1031.50 280.50Q1008 300 965 300L795 300L795 160L965 160Q1008 160 1031.50 179.50Z"  horiz-adv-x="1305" vert-adv-y="1000"  />

      
      <glyph glyph-name="uni045B" unicode="&#x045B;" d="M630 35L630 190Q630 236 599.50 263Q569 290 510 290Q483 290 454.50 285Q426 280 410 275L395 270L395 35Q395 20 385 10Q375 0 360 0L210 0Q195 0 185 10Q175 20 175 35L175 530L35 530Q20 530 10 540Q0 550 0 565L0 665Q0 680 10 690Q20 700 35 700L535 700Q550 700 560 690Q570 680 570 665L570 565Q570 550 560 540Q550 530 535 530L395 530L395 440Q460 460 540 460Q687 460 768.50 386.50Q850 313 850 190L850 35Q850 20 840 10Q830 0 815 0L665 0Q650 0 640 10Q630 20 630 35Z"  horiz-adv-x="900" vert-adv-y="1000"  />

      
      <glyph glyph-name="uni045C" unicode="&#x045C;" d="M585 370L585 360Q588 359 593 357Q598 355 613.50 345Q629 335 644.50 321Q660 307 681 280.50Q702 254 720 220L820 35Q826 23 819.50 11.50Q813 0 795 0L640 0Q594 0 575 35L475 220Q461 245 442 257.50Q423 270 385 270L295 270L295 35Q295 20 285 10Q275 0 260 0L110 0Q95 0 85 10Q75 20 75 35L75 665Q75 680 85 690Q95 700 110 700L260 700Q275 700 285 690Q295 680 295 665L295 440L370 440Q408 440 427 452.50Q446 465 460 490L555 665Q574 700 620 700L775 700Q793 700 799.50 688.50Q806 677 800 665L705 490Q681 446 651 416Q621 386 603 378L585 370M455 760L375 760Q343 760 355 790L415 940Q427 970 455 970L580 970Q595 970 601.50 960.50Q608 951 600 940L500 790Q479 760 455 760Z"  horiz-adv-x="838" vert-adv-y="1000"  />

      
      <glyph glyph-name="uni045E" unicode="&#x045E;" d="M367 891Q367 891 376 883Q385 875 410 875Q435 875 453 891Q471 907 475 930Q479 950 500 950L595 950Q602 950 608.50 944Q615 938 615 930Q615 850 560.50 800Q506 750 410 750Q314 750 259.50 800Q205 850 205 930Q205 938 211.50 944Q218 950 225 950L320 950Q341 950 345 930Q349 907 367 891M578 665L478 400L398 400Q344 400 318 460L233 665Q219 700 183 700L33 700Q14 700 5.50 690Q-3 680 3 665L88 460Q136 345 205 290Q274 235 393 235L418 235L413 220Q406 200 386 185Q366 170 338 170L328 170Q318 170 293 175Q268 180 258 180L213 180Q198 180 188 170Q178 160 178 145L178 35Q178 20 188 10Q198 0 213 0L338 0Q456 0 527 56.50Q598 113 638 220L803 665Q808 680 800 690Q792 700 773 700L628 700Q590 700 578 665Z"  horiz-adv-x="815" vert-adv-y="1000"  />

      
      <glyph glyph-name="uni045F" unicode="&#x045F;" d="M805 665L805 35Q805 20 795 10Q785 0 770 0L550 0L550-95Q550-110 540-120Q530-130 515-130L365-130Q350-130 340-120Q330-110 330-95L330 0L110 0Q95 0 85 10Q75 20 75 35L75 665Q75 680 85 690Q95 700 110 700L260 700Q275 700 285 690Q295 680 295 665L295 170L585 170L585 665Q585 680 595 690Q605 700 620 700L770 700Q785 700 795 690Q805 680 805 665Z"  horiz-adv-x="880" vert-adv-y="1000"  />

      
      </font>
</defs>
</svg>
